<?xml version="1.0" standalone="no"?>
<!DOCTYPE svg PUBLIC "-//W3C//DTD SVG 20010904//EN"
 "http://www.w3.org/TR/2001/REC-SVG-20010904/DTD/svg10.dtd">
<svg version="1.0" xmlns="http://www.w3.org/2000/svg"
 width="4100.000000pt" height="1650.000000pt" viewBox="0 0 4100.000000 1650.000000"
 preserveAspectRatio="xMidYMid meet">

<g transform="translate(0.000000,1650.000000) scale(0.100000,-0.100000)"
fill="#000000" stroke="none">
<path d="M8452 11172 l-3232 -3227 0 -1307 0 -1308 3235 0 3235 0 0 -1615 0
-1615 1620 0 1620 0 0 2920 0 2920 -3237 0 -3238 1 3235 3229 3235 3229 -1620
0 -1620 0 -3233 -3227z"/>
<path d="M16310 12790 c0 -885 3 -1610 6 -1610 4 0 732 723 1618 1607 l1611
1607 3 -1609 2 -1610 -1620 -1620 -1620 -1620 2 -1610 3 -1610 1618 -3 1617
-2 0 1616 0 1616 1620 1615 1620 1615 0 1614 0 1614 -3240 0 -3240 0 0 -1610z"/>
<path d="M21172 6332 c-887 -884 -1613 -1610 -1612 -1614 0 -5 725 -8 1610 -8
1279 0 1612 3 1615 13 3 6 4 733 3 1614 l-3 1601 -1613 -1606z"/>
<path d="M26022 6318 l3 -1603 128 -3 127 -3 0 1606 0 1605 -130 0 -130 0 2
-1602z"/>
<path d="M30022 7290 c-244 -64 -402 -263 -402 -504 0 -135 35 -230 118 -319
56 -59 118 -102 267 -185 171 -95 215 -149 215 -266 0 -102 -33 -162 -113
-203 -42 -21 -66 -26 -127 -26 -41 0 -93 5 -116 11 -63 18 -133 71 -178 133
-23 32 -43 58 -46 58 -3 0 -47 -54 -99 -120 -109 -140 -109 -133 -6 -226 124
-112 259 -163 437 -163 302 0 518 147 583 397 8 31 15 100 15 153 0 240 -79
354 -361 520 -211 125 -249 165 -249 265 0 63 20 105 70 147 103 89 295 68
379 -40 62 -80 45 -86 150 49 l93 121 -58 59 c-138 139 -362 194 -572 139z"/>
<path d="M33037 7295 c-98 -19 -183 -47 -271 -91 -102 -51 -152 -89 -241 -178
-132 -132 -217 -291 -267 -494 -27 -110 -29 -310 -4 -420 62 -280 231 -480
485 -572 132 -48 235 -63 401 -57 170 6 283 33 411 97 117 58 163 92 264 194
125 126 197 254 246 437 27 97 37 329 19 436 -52 322 -268 553 -591 634 -112
27 -341 35 -452 14z m305 -316 c269 -56 419 -318 367 -638 -42 -261 -215 -466
-445 -526 -74 -19 -223 -19 -297 0 -225 59 -356 245 -357 508 0 321 177 578
451 651 65 18 208 20 281 5z"/>
<path d="M27702 6408 c-62 -475 -113 -869 -112 -876 0 -10 100 -12 483 -10
l482 3 21 153 20 152 -297 0 c-164 0 -300 3 -302 8 -3 4 37 322 89 707 51 385
93 706 94 713 0 9 -43 12 -183 12 l-182 0 -113 -862z"/>
<path d="M29010 7263 c0 -5 -51 -395 -114 -868 -62 -473 -112 -863 -109 -867
5 -10 363 -10 363 -1 0 12 219 1684 225 1716 l5 27 -185 0 c-102 0 -185 -3
-185 -7z"/>
<path d="M31010 7254 c-1 -11 -51 -403 -113 -872 -62 -469 -111 -855 -108
-857 8 -9 513 -5 642 5 219 16 325 51 423 141 114 104 161 214 160 374 0 80
-5 112 -23 158 -40 101 -145 188 -266 218 l-48 12 55 17 c203 63 308 215 296
429 -11 184 -137 324 -333 371 -30 7 -175 14 -367 17 -305 5 -318 4 -318 -13z
m530 -285 c71 -15 115 -55 130 -119 23 -98 -7 -189 -79 -237 -47 -32 -91 -42
-210 -50 l-104 -6 5 29 c3 16 16 111 29 212 l23 182 78 0 c42 0 100 -5 128
-11z m-36 -714 c112 -29 146 -75 146 -197 0 -78 -20 -138 -56 -170 -53 -47
-191 -78 -346 -78 l-67 0 4 28 c7 41 55 407 55 420 0 18 193 15 264 -3z"/>
<path d="M34947 7208 c-50 -91 -854 -1650 -862 -1670 -7 -17 7 -18 194 -18
l201 0 95 190 95 190 333 0 333 0 34 -177 c18 -98 35 -184 37 -190 4 -10 52
-13 194 -13 171 0 189 2 189 17 0 9 -92 401 -205 869 -113 469 -205 855 -205
858 0 3 -90 6 -200 6 l-199 0 -34 -62z m268 -769 c25 -124 45 -230 45 -237 0
-9 -56 -12 -220 -12 -121 0 -220 2 -220 4 0 2 54 120 121 262 66 142 139 313
162 379 l41 120 14 -145 c7 -80 33 -246 57 -371z"/>
</g>
</svg>
