<svg width="865" height="282" viewBox="0 0 865 282" fill="none" xmlns="http://www.w3.org/2000/svg">
<path d="M793.7 13.6401V70.8001L787.14 61.1901L786.01 59.5401L754.66 13.6401H535.69L514.6 67.4801L512.72 72.2901L509.44 80.6601L506.32 72.7601L504.51 68.1701L483.01 13.6501H416.47V0.590088H316.89V17.2701L310.44 0.580078H216.74L179.11 98.3101V74.0601H172.78L176 20.3501L165.4 17.7701C145.22 12.8501 127.97 10.8401 105.87 10.8401C66.6896 10.8401 41.7696 17.3801 25.0896 32.0301C7.9496 47.0901 0.30957 69.5701 0.30957 104.92C0.30957 126.97 3.42956 144.36 9.95956 157.99C10.1996 158.5 10.4496 159 10.6996 159.5C14.3096 166.61 18.8896 172.67 24.4896 177.79C40.8896 192.79 64.9796 199.48 102.59 199.48C116.24 199.48 128.41 198.54 141.36 196.36L136.21 209.74H240.79L250.39 183.52H274.74L284.34 209.74H416.49V196.67H464.49V146.89L483.94 196.67H532.93L553.56 143.97V196.67H751.71V126.15L799.88 196.67H864.57V13.6501H793.71L793.7 13.6401ZM693.91 26.7101H747.77L770.17 59.5101C744.02 59.5101 718.61 59.7301 693.91 60.1601V26.7101ZM630.27 26.7101H677.57V60.4701C661.49 60.8101 645.73 61.2501 630.27 61.7701V26.7101ZM544.62 26.7101H613.93V62.3501C584.5 63.4601 556.21 64.8801 529.01 66.5601L544.62 26.7101ZM406.7 26.7101H474.14L490.87 69.1401C461.46 71.3101 433.41 73.7801 406.7 76.5201V26.7101ZM343.06 26.7201H390.36V78.2401C374.09 80.0101 358.32 81.8701 343.06 83.8101V26.7301V26.7201ZM234.71 26.7101H292.55L316.01 87.4001C300.61 89.5401 285.76 91.7501 271.44 94.0301L262.58 67.6801L252.69 97.1001C235.76 99.9501 219.61 102.9 204.22 105.9L234.72 26.7001L234.71 26.7101ZM166.06 87.1201V113.78C149.73 117.35 134.39 120.96 120.01 124.58H96.0496V87.1201H166.06ZM13.3896 104.91C13.3896 44.7301 36.8096 23.8901 105.88 23.8901C126.72 23.8901 143.11 25.7601 162.31 30.4501L159.97 69.5501C139.83 65.3401 123.91 63.2301 107.29 63.2301C72.6296 63.2301 62.0995 72.3601 62.0995 104.44C62.0995 120.47 64.7596 131.2 71.1296 137.88C52.8096 143.27 36.5896 148.54 22.3396 153.54C16.1296 141.36 13.3996 125.37 13.3996 104.91H13.3896ZM166.06 132.23V177.49C159.18 179.33 152.88 180.82 146.88 182.04C131.45 185.17 118.12 186.39 102.6 186.39C60.2595 186.39 35.4796 177.47 23.1796 155.14C39.2196 149.69 55.8896 144.55 73.0696 139.71C79.2796 144.88 88.4096 147.06 101.19 147.06C107.98 147.06 114.54 146.36 121.09 145.19V127.23C135.81 123.7 150.82 120.36 166.05 117.19V132.24L166.06 132.23ZM390.35 183.6H343.05L302.61 183.59L293.01 157.37H232.13L222.53 183.59H174.29L179.12 171.04L202.63 110C218.64 107.02 234.83 104.22 251.17 101.59L244.77 120.61H280.36L272.82 98.2001C287.71 95.9501 302.69 93.8301 317.7 91.8301L343.04 157.37V88.5801C358.81 86.6401 374.59 84.8301 390.34 83.1401V183.6H390.35ZM613.92 183.59H566.62V74.7101L524 183.59H492.86L451.41 77.5201V183.59H406.69V81.4401C435.64 78.4901 464.41 75.9601 492.69 73.7801L509.49 116.39L527.16 71.2801C556.94 69.2501 585.99 67.6001 613.92 66.2701V183.6V183.59ZM677.56 183.59H630.26V65.5101C646.47 64.7901 662.26 64.1801 677.56 63.6601V183.59ZM851.49 183.59H806.77L738.63 83.8401V183.59H693.91V63.1401C721.78 62.2901 747.8 61.7401 771.45 61.3901L806.77 113.11V61.0101C823.44 60.8901 838.44 60.8801 851.49 60.9201V183.59ZM806.77 59.6601V26.7001H851.49V60.2301C836.36 59.9601 821.45 59.7701 806.77 59.6501V59.6601Z" fill="black"/>
<path d="M29.5601 230.32H0.0800781V280.96H7.19009V261.99H29.5601C42.4101 261.99 47.3201 257.76 47.3201 246.27C47.3201 234.78 42.4101 230.32 29.5601 230.32ZM28.6501 255.57H7.18008V236.75H28.6501C37.1901 236.75 40.1401 239.09 40.1401 246.2C40.1401 253.31 37.1901 255.57 28.6501 255.57Z" fill="black"/>
<path d="M81.3397 229.42C61.3797 229.42 54.3496 236.22 54.3496 255.65C54.3496 275.08 61.3797 281.88 81.3397 281.88C101.3 281.88 108.33 275.08 108.33 255.65C108.33 236.22 101.3 229.42 81.3397 229.42ZM81.3397 275.45C66.0697 275.45 61.5396 270.84 61.5396 255.65C61.5396 240.46 66.0697 235.85 81.3397 235.85C96.6097 235.85 101.14 240.46 101.14 255.65C101.14 270.84 96.5997 275.45 81.3397 275.45Z" fill="black"/>
<path d="M165.85 271.07L152.7 230.32H145.37L132.29 271.07L119.37 230.32H111.88L128.13 280.97H135.84L148.92 240.3L162 280.97H169.71L185.96 230.32H178.78L165.85 271.07Z" fill="black"/>
<path d="M192.24 280.97H236.68V274.54H199.34V258.44H230.94V252.02H199.34V236.75H236.68V230.32H192.24V280.97Z" fill="black"/>
<path d="M293.53 245.82C293.53 234.63 288.77 230.32 276.07 230.32H246.36V280.96H253.47V261.16H270.02L286.27 280.96H295.49L279.16 261.08C289.52 260.4 293.52 255.94 293.52 245.81L293.53 245.82ZM253.47 254.74V236.75H275.24C283.4 236.75 286.35 239.09 286.35 245.9C286.35 252.71 283.55 254.74 275.24 254.74H253.47Z" fill="black"/>
<path d="M310.85 230.32H303.74V280.96H310.85V230.32Z" fill="black"/>
<path d="M364.74 270.38L332.99 230.32H323.69V280.97H330.57V238.03L364.59 280.97H371.62V230.32H364.74V270.38Z" fill="black"/>
<path d="M408.81 259.12H422.42V273.63C418.34 274.92 414.33 275.44 409.27 275.44C393.93 275.44 388.94 270.45 388.94 255.56C388.94 240.67 394 235.83 409.95 235.83C416.3 235.83 421.51 236.59 427.64 238.48L428.24 231.98C421.97 230.17 416.75 229.41 409.95 229.41C389.31 229.41 381.75 236.44 381.75 255.64C381.75 274.84 389.23 281.87 409.87 281.87C417.2 281.87 422.95 280.96 429.52 278.77V252.69H408.81V259.11V259.12Z" fill="black"/>
<path d="M450.31 236.9H470.34V280.97H477.44V236.9H497.48V230.32H450.31V236.9Z" fill="black"/>
<path d="M544.87 251.87H511.46V230.32H504.36V280.97H511.46V258.44H544.87V280.97H551.98V230.32H544.87V251.87Z" fill="black"/>
<path d="M564.83 280.97H609.28V274.54H571.94V258.44H603.53V252.02H571.94V236.75H609.28V230.32H564.83V280.97Z" fill="black"/>
<path d="M659.62 259.12H673.23V273.63C669.15 274.92 665.14 275.44 660.08 275.44C644.73 275.44 639.75 270.45 639.75 255.56C639.75 240.67 644.81 235.83 660.76 235.83C667.11 235.83 672.33 236.59 678.45 238.48L679.05 231.98C672.78 230.17 667.56 229.41 660.76 229.41C640.12 229.41 632.57 236.44 632.57 255.64C632.57 274.84 640.05 281.87 660.69 281.87C668.02 281.87 673.77 280.96 680.34 278.77V252.69H659.63V259.11L659.62 259.12Z" fill="black"/>
<path d="M708.3 230.32L685.4 280.96H692.88L697.72 270.07H727.05L731.89 280.96H739.6L716.7 230.32H708.31H708.3ZM700.59 263.65L712.38 237.12L724.17 263.65H700.59Z" fill="black"/>
<path d="M776.41 270.91L756.45 230.32H745.87V280.97H752.75V238.49L773.54 280.97H778.98L799.92 238.18V280.97H807.02V230.32H796.29L776.41 270.91Z" fill="black"/>
<path d="M819.88 280.97H864.32V274.54H826.98V258.44H858.58V252.02H826.98V236.75H864.32V230.32H819.88V280.97Z" fill="black"/>
</svg>
