<?xml version="1.0" encoding="UTF-8"?>
<svg id="Layer_2" data-name="Layer 2" xmlns="http://www.w3.org/2000/svg" viewBox="0 0 966.03 595.28">
  <defs>
    <style>
      .cls-1 {
        fill: #ffe100;
      }
    </style>
  </defs>
  <g id="Layer_1-2" data-name="Layer 1">
    <g>
      <rect class="cls-1" x="185.38" y="-185.38" width="595.28" height="966.03" transform="translate(780.65 -185.38) rotate(90)"/>
      <g>
        <path d="M105.36,274.63l6.58-11.61c1.12-1.82,3.78-1.54,4.76-.84,.56,.28,10.64,7.7,19.87,7.7,5.6,0,9.66-3.5,9.66-8.4,0-5.88-4.9-10.35-14.41-14.13-12.03-4.76-27.15-14.13-27.15-30.92,0-13.85,10.77-27.85,32.32-27.85,14.55,0,25.75,7.42,29.94,10.49,1.68,.98,1.4,3.5,.84,4.48l-7.14,10.78c-.98,1.54-3.5,2.8-4.76,1.82-1.26-.7-11.47-8.4-20.01-8.4-5.04,0-8.82,3.36-8.82,7.14,0,5.18,4.2,9.1,15.25,13.57,10.91,4.34,28.27,12.87,28.27,31.9,0,14.41-12.45,28.96-33.02,28.96-18.19,0-28.26-7.56-31.48-10.78-1.4-1.4-1.82-1.96-.7-3.92Z"/>
        <path d="M200.23,210.54h-20.01c-1.54,0-2.66-1.26-2.66-2.66v-15.25c0-1.4,1.12-2.66,2.66-2.66h62.13c1.54,0,2.66,1.26,2.66,2.66v15.25c0,1.4-1.12,2.66-2.66,2.66h-20.01v74.72c0,1.4-1.26,2.66-2.66,2.66h-16.79c-1.4,0-2.66-1.26-2.66-2.66v-74.72Z"/>
        <path d="M332.74,287.92h-15.53c-2.51,0-3.63-.84-4.89-3.49l-5.04-11.05h-38.06l-5.03,11.19c-.7,1.68-2.24,3.36-5.04,3.36h-15.39c-2.1,0-3.22-1.82-2.38-3.63l43.8-94.18c.42-.84,1.4-1.53,2.38-1.53h1.4c.98,0,1.96,.7,2.38,1.53l43.8,94.18c.84,1.82-.28,3.63-2.38,3.63Z"/>
        <path d="M420.06,348.23c.98,1.82,0,4.06-2.38,4.06h-18.61c-1.12,0-1.96-.7-2.24-1.26l-18.61-37.08h-9.66v35.68c0,1.4-1.26,2.66-2.65,2.66h-16.66c-1.54,0-2.65-1.26-2.65-2.66v-92.64c0-1.4,1.11-2.65,2.65-2.65h41.84c16.79,0,30.51,13.57,30.51,30.22,0,12.87-8.53,23.23-20.71,28.13l19.17,35.54Z"/>
        <path d="M452.94,231.11h-20.01c-1.54,0-2.66-1.26-2.66-2.66v-15.25c0-1.4,1.12-2.66,2.66-2.66h62.13c1.54,0,2.66,1.26,2.66,2.66v15.25c0,1.4-1.12,2.66-2.66,2.66h-20.01v74.72c0,1.4-1.26,2.66-2.66,2.66h-16.79c-1.4,0-2.66-1.26-2.66-2.66v-74.72Z"/>
        <path d="M510.32,257c0-1.4,1.26-2.66,2.66-2.66h17.21c1.54,0,2.66,1.26,2.66,2.66v56.67c0,9.8,7.28,17.63,17.21,17.63s17.49-7.84,17.49-17.63v-56.67c0-1.4,1.12-2.66,2.66-2.66h17.21c1.4,0,2.66,1.26,2.66,2.66v57.79c0,21.27-17.91,38.9-40.02,38.9s-39.74-17.63-39.74-38.9v-57.79Z"/>
        <path d="M680.33,220.9c0,17.34-14.13,31.48-31.2,31.48h-14.69v32.89c0,1.4-1.26,2.65-2.66,2.65h-16.5c-1.54,0-2.66-1.26-2.66-2.65v-92.64c0-1.4,1.12-2.65,2.66-2.65h33.72c17.21,0,31.34,13.99,31.34,30.93Z"/>
        <path d="M221.47,338.27c0,17.35-14.14,31.49-31.2,31.49h-14.7v32.88c0,1.4-1.26,2.66-2.65,2.66h-16.51c-1.54,0-2.65-1.26-2.65-2.66v-92.63c0-1.4,1.11-2.66,2.65-2.66h33.72c17.21,0,31.34,13.99,31.34,30.93Z"/>
        <path d="M329.64,356.46c0,27.99-22.39,50.24-50.38,50.24s-50.23-22.25-50.23-50.24,22.24-50.51,50.23-50.51,50.38,22.53,50.38,50.51Z"/>
        <path d="M655.82,306.09c11.75,0,24.63,4.9,34.14,13.15,1.26,.98,1.4,2.66,.28,3.78l-11.05,11.75c-1.12,.98-2.66,.98-3.78,.14-5.32-4.9-11.47-6.72-18.33-6.72-15.25,0-27.57,12.87-27.57,28.27s12.45,27.85,27.71,27.85c4.06,0,8.26-.56,12.45-2.24v-8.12h-8.82c-1.54,0-2.66-1.12-2.66-2.52v-13.85c0-1.54,1.12-2.66,2.66-2.66h28.13c1.4,0,2.52,1.26,2.52,2.66l.14,37.64c0,.7-.56,1.82-1.12,2.24,0,0-14.41,9.1-34.7,9.1-27.85,0-50.23-22.11-50.23-50.09s22.39-50.37,50.23-50.37Z"/>
        <path d="M789.59,405.3h-15.53c-2.52,0-3.63-.84-4.9-3.5l-5.03-11.05h-38.06l-5.04,11.2c-.69,1.67-2.24,3.36-5.03,3.36h-15.39c-2.1,0-3.22-1.82-2.38-3.64l43.8-94.17c.42-.84,1.4-1.54,2.38-1.54h1.4c.98,0,1.96,.7,2.38,1.54l43.8,94.17c.84,1.83-.28,3.64-2.38,3.64Z"/>
        <path d="M803.44,310.01c0-1.4,1.12-2.66,2.66-2.66h16.65c1.4,0,2.66,1.26,2.66,2.66v74.72h33.3c1.54,0,2.66,1.26,2.66,2.66v15.25c0,1.4-1.12,2.66-2.66,2.66h-52.61c-1.54,0-2.66-1.26-2.66-2.66v-92.63Z"/>
      </g>
    </g>
  </g>
</svg>