<?xml version="1.0" encoding="UTF-8"?>
<svg width="600px" height="100px" viewBox="0 0 600 100" version="1.1" xmlns="http://www.w3.org/2000/svg" xmlns:xlink="http://www.w3.org/1999/xlink">
    <title>logo/long/blue</title>
    <defs>
        <path d="M25.0422742,21.461446 C27.3349628,15.00509 28.1470932,7.86529416 28.3703819,2.51955424 C28.5509216,-1.80273424 42.1137873,0.259731015 42.1556503,2.60560686 C42.2066924,5.46585076 41.9476591,7.73783387 41.728681,9.42155618 C41.130816,14.0185383 40.8466509,21.571708 39.0835087,26.2548493 C35.4780417,35.831452 26.7111743,48.6129937 12.7829066,64.5994747 L12.7845798,64.6009329 C12.1490927,65.3301231 11.0428031,65.4060843 10.313613,64.7705971 C10.3044481,64.7626099 10.2953665,64.7545275 10.2863699,64.7463512 L1.31089866,56.5701974 C0.595805506,55.918888 0.544098593,54.8111998 1.19540803,54.0961067 C1.19938499,54.0917403 1.20338401,54.087394 1.20740494,54.083068 C14.4138735,39.8921856 22.3587988,29.0182826 25.0422742,21.461446 Z" id="path-1"></path>
        <filter x="-16.6%" y="-3.7%" width="133.1%" height="107.4%" filterUnits="objectBoundingBox" id="filter-3">
            <feGaussianBlur stdDeviation="0.875675676" in="SourceGraphic"></feGaussianBlur>
        </filter>
        <path d="M0.00047186276,65.2756602 L0,37.6176807 L4.4408921e-16,12.5788956 C4.38011195e-16,12.5292648 0.00210969486,12.4796565 0.0063233717,12.4302049 L1.06547837,5.59249366e-14 L1.06547837,5.59249366e-14 L15.134902,5.59249366e-14 L15.134902,12.5059826 L15.134902,37.6192476 L15.1351351,65.2756602 C15.1351428,66.2429049 14.3510423,67.0270178 13.3837977,67.0270254 C13.383793,67.0270254 13.3837884,67.0270254 13.3837838,67.0270254 L1.7518531,67.0269817 C0.784620121,67.0269817 0.000518243797,66.2428932 0.000501742185,65.2756602 Z" id="path-4"></path>
        <filter x="-8.5%" y="-5.6%" width="116.9%" height="111.2%" filterUnits="objectBoundingBox" id="filter-6">
            <feGaussianBlur stdDeviation="1.75135135" in="SourceGraphic"></feGaussianBlur>
        </filter>
    </defs>
    <g id="logo/long/blue" stroke="none" stroke-width="1" fill="none" fill-rule="evenodd">
        <g id="Logo" transform="translate(10.4029, 15.4321)">
            <path d="M193.337015,61.2028912 C207.383963,61.2028912 218.797109,51.7628912 218.797109,39.9228912 L218.797109,9.20289122 C218.797109,8.09832172 217.901678,7.20289122 216.797109,7.20289122 L203.797109,7.20289122 C202.692539,7.20289122 201.797109,8.09832172 201.797109,9.20289122 L201.797109,39.6828912 L201.797109,39.6828912 C201.797109,43.5228912 197.966123,46.7228912 193.337015,46.7228912 C188.628095,46.7228912 184.876921,43.5228912 184.876921,39.6828912 L184.876921,9.20289122 C184.876921,8.09832172 183.98149,7.20289122 182.876921,7.20289122 L169.797109,7.20289122 C168.692539,7.20289122 167.797109,8.09832172 167.797109,9.20289122 L167.797109,39.9228912 L167.797109,39.9228912 C167.797109,51.7628912 179.05063,61.2028912 193.337015,61.2028912 Z M238.931178,7.20289122 C240.035748,7.20289122 240.931178,8.09832172 240.931178,9.20289122 L240.931178,46.9628912 L272.797109,46.9628912 C273.901678,46.9628912 274.797109,47.8583217 274.797109,48.9628912 L274.797109,59.2028912 C274.797109,60.3074607 273.901678,61.2028912 272.797109,61.2028912 L225.797109,61.2028912 C224.692539,61.2028912 223.797109,60.3074607 223.797109,59.2028912 L223.797109,9.20289122 C223.797109,8.09832172 224.692539,7.20289122 225.797109,7.20289122 Z M311.797109,7.20289122 C312.901678,7.20289122 313.797109,8.09832172 313.797109,9.20289122 L313.797109,19.2620628 C313.797109,20.3666323 312.901678,21.2620628 311.797109,21.2620628 L296.610588,21.2620628 L296.610588,59.2028912 C296.610588,60.3074607 295.715158,61.2028912 294.610588,61.2028912 L281.66388,61.2028912 C280.55931,61.2028912 279.66388,60.3074607 279.66388,59.2028912 L279.66388,21.2620628 L264.797109,21.2620628 C263.692539,21.2620628 262.797109,20.3666323 262.797109,19.2620628 L262.797109,9.20289122 C262.797109,8.09832172 263.692539,7.20289122 264.797109,7.20289122 Z M319.797109,9.20289122 L319.797109,59.2028912 C319.797109,60.3074607 320.692539,61.2028912 321.797109,61.2028912 L334.797109,61.2028912 C335.901678,61.2028912 336.797109,60.3074607 336.797109,59.2028912 L336.797109,9.20289122 C336.797109,8.09832172 335.901678,7.20289122 334.797109,7.20289122 L321.797109,7.20289122 C320.692539,7.20289122 319.797109,8.09832172 319.797109,9.20289122 Z M365.377041,7.20289122 C377.648222,7.20289122 387.694128,13.8125566 388.712187,22.3341194 L388.718949,22.4097412 L388.721205,22.4856312 C388.721205,23.191027 388.149369,23.7628633 387.443973,23.7628633 L373.185103,23.7628903 C372.386836,23.7636424 371.664571,23.2896326 371.347622,22.5569846 L371.336802,22.5300229 C370.573211,20.8617486 368.289573,19.6028912 365.377041,19.6028912 C361.70017,19.6028912 359.142347,21.2028912 359.142347,23.7628912 C359.142347,26.2428912 361.70017,28.0028912 365.377041,28.0028912 C378.565816,28.0028912 388.797109,35.5228912 388.797109,44.6428912 C388.797109,53.8428912 378.565816,61.2028912 365.616837,61.2028912 C352.294189,61.2028912 342.940733,54.3927726 341.894814,46.2501821 L341.886537,46.1640635 L341.883774,46.0775921 C341.883774,45.3294286 342.490281,44.7229222 343.238444,44.7229222 L357.646838,44.7228885 C358.366357,44.7228885 359.011539,45.166091 359.269701,45.8377007 L359.340492,46.007234 C360.098393,47.6867199 362.347993,48.8828912 365.377041,48.8828912 C368.814116,48.8828912 371.531803,47.2028912 371.531803,44.7228912 C371.531803,42.0828912 368.57432,40.4828912 365.217177,40.4828912 C352.667857,40.4828912 341.877041,33.0428912 341.877041,23.8428912 C341.877041,14.6428912 351.708673,7.20289122 365.377041,7.20289122 Z M404.295885,7.20289122 C404.954636,7.20289122 405.571141,7.5272797 405.944222,8.07020189 L417.717308,25.2028912 L429.649173,8.06033583 C430.02308,7.52314192 430.636176,7.20289122 431.290687,7.20289122 L445.98257,7.20289122 C446.388997,7.20289122 446.785779,7.32671453 447.120069,7.55786967 C448.02859,8.18609305 448.255815,9.43186996 447.627592,10.3403903 L426.176161,41.3628912 L426.176161,59.2028912 C426.176161,60.3074607 425.280731,61.2028912 424.176161,61.2028912 L411.418056,61.2028912 C410.313487,61.2028912 409.418056,60.3074607 409.418056,59.2028912 L409.418056,41.3628912 L387.966626,10.3403903 C387.735471,10.0060997 387.611647,9.60931818 387.611647,9.20289122 C387.611647,8.09832172 388.507078,7.20289122 389.611647,7.20289122 Z M452.797109,9.20289122 L452.797109,59.2028912 C452.797109,60.3074607 453.692539,61.2028912 454.797109,61.2028912 L467.949378,61.2028912 C469.053948,61.2028912 469.949378,60.3074607 469.949378,59.2028912 L469.949378,35.6028912 L469.949378,35.6028912 L500.154725,60.7401803 C500.514003,61.0391768 500.966659,61.2028912 501.434077,61.2028912 L505.797109,61.2028912 C506.901678,61.2028912 507.797109,60.3074607 507.797109,59.2028912 L507.797109,9.20289122 C507.797109,8.09832172 506.901678,7.20289122 505.797109,7.20289122 L492.644839,7.20289122 C491.54027,7.20289122 490.644839,8.09832172 490.644839,9.20289122 L490.644839,32.7228912 L490.644839,32.7228912 L460.276757,7.66036554 C459.918428,7.36464019 459.468322,7.20289122 459.003723,7.20289122 L454.797109,7.20289122 C453.692539,7.20289122 452.797109,8.09832172 452.797109,9.20289122 Z M94.7971088,9.20289122 L94.7971088,59.2028912 C94.7971088,60.3074607 95.6925393,61.2028912 96.7971088,61.2028912 L109.876921,61.2028912 C110.98149,61.2028912 111.876921,60.3074607 111.876921,59.2028912 L111.876921,33.5228912 L111.876921,33.5228912 L128.876921,46.4028912 L145.717297,33.4428912 L145.717297,59.2028912 C145.717297,60.3074607 146.612727,61.2028912 147.717297,61.2028912 L160.797109,61.2028912 C161.901678,61.2028912 162.797109,60.3074607 162.797109,59.2028912 L162.797109,9.20289122 C162.797109,8.09832172 161.901678,7.20289122 160.797109,7.20289122 L155.135137,7.20289122 L155.135137,7.20289122 L128.876921,27.2028912 L102.459081,7.20289122 L96.7971088,7.20289122 C95.6925393,7.20289122 94.7971088,8.09832172 94.7971088,9.20289122 Z M544.621043,7.20289122 C562.749202,7.20289122 577.444978,19.4179231 577.444978,34.4859286 C577.444978,39.1113619 576.060182,43.467957 573.616395,47.2849059 L578.151476,51.126086 C578.994321,51.8400087 579.098833,53.1020185 578.384911,53.9448638 C578.352052,53.9836558 578.317727,54.0211808 578.282009,54.0573572 L570.769295,61.6665236 C570.034762,62.4104868 568.851172,62.4631937 568.053418,61.7874654 L562.706271,57.257781 C557.520548,60.1088863 551.304034,61.768966 544.621043,61.768966 C526.492885,61.768966 511.797109,49.5539341 511.797109,34.4859286 C511.797109,19.4179231 526.492885,7.20289122 544.621043,7.20289122 Z M544.621043,21.1118907 C535.408373,21.1118907 527.940027,27.0996514 527.940027,34.4859286 C527.940027,41.8722058 535.408373,47.8599665 544.621043,47.8599665 C546.719004,47.8599665 548.726506,47.5494475 550.575951,46.9826068 L547.348667,44.2497381 C546.505822,43.5358155 546.401309,42.2738057 547.115232,41.4309604 C547.14809,41.3921684 547.182416,41.3546433 547.218133,41.318467 L554.730848,33.7093005 C555.465381,32.9653373 556.64897,32.9126304 557.446724,33.5883588 L561.081313,36.6671267 C561.226537,35.957314 561.302059,35.2286924 561.302059,34.4859286 C561.302059,27.0996514 553.833714,21.1118907 544.621043,21.1118907 Z" id="Combined-Shape" fill="#006AFF" fill-rule="nonzero"></path>
            <g id="Group" transform="translate(42.3251, 34.528) rotate(90) translate(-42.3251, -34.528)translate(7.7971, -7.7971)">
                <g id="Rect" transform="translate(26.8939, 11.6773)">
                    <mask id="mask-2" fill="white">
                        <use xlink:href="#path-1" transform="translate(21.0811, 32.973) scale(-1, 1) translate(-21.0811, -32.973)"></use>
                    </mask>
                    <use id="Mask" fill="#002AFF" fill-rule="nonzero" transform="translate(21.0811, 32.973) scale(-1, 1) translate(-21.0811, -32.973)" xlink:href="#path-1"></use>
                    <polygon fill-opacity="0.2" fill="#000000" fill-rule="nonzero" filter="url(#filter-3)" mask="url(#mask-2)" points="2.15638427 65.7020096 2.15585824 43.5143804 2.15585824 18.0034451 2.15585824 -5.66913663 18.0236211 -5.66913663 18.0236211 18.0050368 18.0236211 43.5159721 18.0238655 65.7020096"></polygon>
                </g>
                <g id="Combined-Shape-Copy" transform="translate(26.3533, 17.6232)">
                    <mask id="mask-5" fill="white">
                        <use xlink:href="#path-4"></use>
                    </mask>
                    <use id="Mask" fill="#006AFF" fill-rule="nonzero" xlink:href="#path-4"></use>
                    <path d="M0.32804057,16.625437 C4.28297293,5.13082387 3.61888864,-8.56436982 3.36709503,-10.0330125 C3.36709503,-10.0330125 6.23922128,-10.0330125 11.9834738,-10.0330125 C13.2294042,-10.0330125 15.402323,-10.0330125 18.5022302,-10.0330125 C18.975324,-3.17906784 19.0217869,1.75634556 18.6416187,4.77322774 C18.0713665,9.29855102 16.9453851,16.7339802 15.2636746,21.3441196 C14.3775819,23.7732006 13.0556988,26.4815634 11.4684206,29.3080319 C3.55732016,43.3953392 -10.9464406,60.4165023 -10.9464406,60.4165023 L-22.014742,50.0096689 C-22.014742,50.0096689 -3.62689179,28.1200501 0.32804057,16.625437 Z M-27.0987499,-32.2149658 L-15.6776866,-16.3453493 C-14.8301855,-15.1677429 -15.0977887,-13.5260689 -16.2753951,-12.6785678 C-16.722399,-12.3568676 -17.2592016,-12.1837858 -17.8099316,-12.1837858 L-40.6520584,-12.1837858 C-42.1029253,-12.1837858 -43.2790854,-13.3599459 -43.2790854,-14.8108128 C-43.2790854,-15.3615428 -43.1060036,-15.8983455 -42.7843034,-16.3453493 L-31.36324,-32.2149658 C-30.5157389,-33.3925722 -28.8740649,-33.6601755 -27.6964585,-32.8126744 C-27.4662646,-32.6470082 -27.2644161,-32.4451597 -27.0987499,-32.2149658 Z" fill-opacity="0.2" fill="#000000" fill-rule="nonzero" filter="url(#filter-6)" mask="url(#mask-5)"></path>
                </g>
                <path d="M24.5119881,31.8074387 C25.9117303,27.9468083 26.6822592,23.9999099 27.07806,20.4024399 C27.8637628,13.2611153 41.9498107,16.0459458 41.6168405,20.5976848 C41.1746946,26.6411326 40.7916879,32.4338674 38.66134,37.9758893 C35.0262874,47.4323456 26.1848692,60.055121 12.1370855,75.8442154 L12.1374011,75.8444967 C11.493779,76.5664615 10.3867643,76.6300035 9.66476081,75.9864249 L0.585716777,67.8865729 C-0.13581761,67.2431146 -0.199485313,66.1367088 0.443475572,65.414731 C13.7816055,50.4775288 21.8044495,39.2751039 24.5119881,31.8074387 Z M35.6132223,0.767318162 L47.9328252,18.9004529 C48.4763868,19.7005173 48.2684502,20.7897414 47.4683858,21.3333029 C47.1780621,21.5305481 46.8351699,21.6360096 46.4841805,21.6360096 L21.8449747,21.6360096 C20.87773,21.6360096 20.0936233,20.8519029 20.0936233,19.8846582 C20.0936233,19.5336689 20.1990848,19.1907767 20.39633,18.9004529 L32.7159329,0.767318162 C33.2594945,-0.0327462142 34.3487185,-0.240682813 35.1487829,0.302878769 C35.3315006,0.427016641 35.4890844,0.584600523 35.6132223,0.767318162 Z" id="Combined-Shape" fill="#0096FF" fill-rule="nonzero"></path>
            </g>
        </g>
    </g>
</svg>