<svg width="24" height="24" viewBox="0 0 24 24" fill="none" xmlns="http://www.w3.org/2000/svg">
  <path id="Union" fill="black" fill-rule="evenodd" clip-rule="evenodd" d="M1.24259 7.29966C1.42321 7.36733 1.6086 7.40582 1.79317 7.41717C1.88868 7.42309 1.98531 7.42183 2.08231 7.413C2.25656 7.39745 2.43027 7.35774 2.5984 7.2927L5.21545 11.4987L2.67366 15.2205C2.53417 15.1596 2.38994 15.1166 2.24402 15.0909C1.96044 15.0405 1.67366 15.0562 1.40402 15.1305C1.1342 15.2046 0.87966 15.338 0.661725 15.5265C0.500273 15.6658 0.360157 15.8341 0.250069 16.0283C0.139524 16.2222 0.0665437 16.4287 0.0294137 16.6388C-0.021022 16.922 -0.00550841 17.2085 0.0685358 17.4779C0.142584 17.7484 0.276101 18.0035 0.465048 18.2219C0.604334 18.3833 0.772607 18.5234 0.966678 18.6334C1.16059 18.7439 1.36709 18.8169 1.57711 18.8541C1.86132 18.9047 2.14877 18.8889 2.41897 18.8142C2.68816 18.7401 2.94209 18.6071 3.1596 18.4191C3.27184 18.3223 3.37378 18.2115 3.4625 18.0878L10.0875 21.1637C10.0852 21.173 10.0829 21.1824 10.0808 21.1917C10.0373 21.3757 10.0222 21.5621 10.0335 21.7454C10.0417 21.8817 10.0646 22.0181 10.1028 22.1521C10.1289 22.244 10.1617 22.3332 10.2007 22.4189C10.2585 22.5465 10.3308 22.6687 10.4176 22.783C10.4931 22.8828 10.5789 22.9759 10.6743 23.0602C10.7727 23.1474 10.879 23.2233 10.9911 23.2873C11.08 23.3384 11.1719 23.3816 11.2659 23.4171C11.351 23.4492 11.439 23.4755 11.5294 23.4953C11.7048 23.5341 11.882 23.5473 12.0564 23.5366C12.1937 23.5284 12.3309 23.5053 12.4657 23.4667C12.5572 23.4406 12.6458 23.4079 12.7311 23.3691C12.8585 23.3113 12.9806 23.239 13.0948 23.1523C13.1943 23.077 13.2871 22.9914 13.3713 22.8963C13.4586 22.7978 13.5346 22.6914 13.5988 22.5791C13.6509 22.4884 13.6949 22.3945 13.7308 22.2984C13.7619 22.2152 13.7874 22.1293 13.8068 22.0411C13.8456 21.8658 13.8588 21.6885 13.8482 21.5142C13.84 21.3764 13.8168 21.2386 13.7779 21.1033C13.752 21.0126 13.7196 20.9247 13.6812 20.8401C13.6233 20.7123 13.5508 20.5898 13.4638 20.4752L13.458 20.4675L13.4464 20.4526L21.0043 11.815C21.1032 11.8731 21.206 11.9215 21.3113 11.9602C21.3526 11.9754 21.3942 11.989 21.4361 12.0012C21.6381 12.06 21.8469 12.0843 22.0537 12.0752C22.3044 12.0645 22.5426 12.0055 22.7592 11.9072C22.825 11.8774 22.8894 11.8438 22.952 11.8063C23.1242 11.7033 23.2826 11.5714 23.4197 11.4116C23.4614 11.3631 23.5007 11.3125 23.5375 11.26C23.6331 11.1233 23.7085 10.9775 23.7641 10.8264C23.7859 10.7673 23.8046 10.7074 23.8202 10.647C23.8683 10.4617 23.8877 10.2713 23.8793 10.0826C23.8685 9.83238 23.8095 9.59464 23.7115 9.3784C23.6885 9.32757 23.6632 9.27759 23.6356 9.2286C23.6233 9.20677 23.6106 9.18515 23.5974 9.16375C23.4961 8.99946 23.3683 8.84816 23.2146 8.71654C23.1827 8.68919 23.15 8.66287 23.1164 8.63763C23.0868 8.61544 23.0565 8.59408 23.0257 8.5736C22.9007 8.4906 22.7685 8.42402 22.6321 8.3737C22.607 8.36445 22.5818 8.35575 22.5565 8.3476C22.3385 8.27743 22.1117 8.24798 21.8871 8.2579C21.6363 8.26869 21.398 8.32785 21.1813 8.42629C21.1165 8.45563 21.0531 8.48873 20.9914 8.52557C20.8949 8.58314 20.8027 8.64977 20.7161 8.72529L13.638 3.1639C13.6926 3.05863 13.7366 2.94977 13.7701 2.83878C13.7978 2.74709 13.8183 2.65409 13.8319 2.56056C13.8687 2.30809 13.8553 2.04469 13.7843 1.78455C13.7291 1.58118 13.6403 1.38641 13.5196 1.20932C13.5145 1.20177 13.5093 1.19426 13.504 1.18678C13.4806 1.15342 13.4561 1.12095 13.4308 1.08939C13.3098 0.938835 13.1676 0.808918 13.0102 0.702728C12.8475 0.592602 12.6729 0.510763 12.4928 0.456462C12.4014 0.428843 12.3086 0.408373 12.2153 0.394903C11.9631 0.358097 11.6999 0.37147 11.44 0.442287C11.2363 0.497525 11.0411 0.586479 10.8638 0.707425C10.8411 0.722914 10.8187 0.738927 10.7965 0.755461C10.6239 0.884525 10.4763 1.04073 10.3581 1.21581C10.2477 1.37883 10.1656 1.55375 10.1112 1.73431C10.0836 1.82579 10.0631 1.91858 10.0497 2.01189C10.0255 2.17766 10.0231 2.34813 10.0443 2.51929L3.58823 4.59446C3.51904 4.46735 3.43656 4.35038 3.34316 4.24475C3.17884 4.05853 2.9754 3.90159 2.73784 3.78761C2.69843 3.76868 2.65837 3.75109 2.61772 3.73488C2.42503 3.65795 2.22642 3.61467 2.02875 3.60252C1.93333 3.5966 1.83681 3.59785 1.7399 3.60665C1.52521 3.62578 1.31134 3.68158 1.10769 3.77626C0.936561 3.85529 0.781662 3.95752 0.645602 4.07788C0.587603 4.12908 0.532446 4.18407 0.480544 4.24271C0.322741 4.4207 0.201953 4.62444 0.120978 4.84192C0.0534589 5.02227 0.0150313 5.20738 0.00366002 5.39166C-0.00228469 5.48721 -0.00103922 5.58387 0.00777354 5.6809C0.0268966 5.89557 0.082689 6.1094 0.177335 6.31302C0.256342 6.48412 0.358534 6.63899 0.478844 6.77503C0.530303 6.83334 0.585598 6.88878 0.644576 6.94092C0.822267 7.09829 1.02558 7.2188 1.24259 7.29966ZM3.34224 6.77601C3.29924 6.82465 3.254 6.87079 3.20676 6.91434L5.65696 10.8522L7.32045 8.41632L3.46264 6.6252C3.42528 6.67721 3.38513 6.72756 3.34224 6.77601ZM3.81832 5.62712C3.81121 5.74333 3.79333 5.85987 3.76419 5.97534L7.73001 7.81661L10.5865 3.63396C10.5324 3.57972 10.4814 3.522 10.4338 3.46101C10.4215 3.44523 10.4094 3.42923 10.3976 3.41302C10.3857 3.39671 10.374 3.38023 10.3627 3.3636C10.3267 3.31097 10.2936 3.25682 10.2634 3.20139L3.80757 5.27648C3.81009 5.29711 3.81227 5.31776 3.81412 5.33841C3.82293 5.43527 3.82421 5.53175 3.81832 5.62712ZM7.97914 8.72215L6.07055 11.5169L11.2533 19.8462C11.3058 19.826 11.3595 19.8079 11.4142 19.7923C11.47 19.7763 11.5262 19.7629 11.5826 19.7522V12.0436C11.5648 12.0402 11.5471 12.0365 11.5294 12.0326C11.3049 11.9833 11.0952 11.8946 10.9079 11.774C10.6697 11.6213 10.4746 11.4217 10.3294 11.1932C10.1846 10.9664 10.0863 10.7069 10.0482 10.4283C10.0174 10.2072 10.0251 9.97907 10.075 9.75416C10.0789 9.73635 10.0831 9.71864 10.0875 9.70102L7.97914 8.72215ZM10.9132 8.55574C10.7121 8.68379 10.5333 8.85049 10.3893 9.05127L8.3887 8.12243L11.178 4.03804C11.2465 4.0679 11.3162 4.09348 11.3868 4.11484C11.4789 4.14278 11.5724 4.16346 11.6664 4.17703C11.9031 4.21156 12.1495 4.2019 12.3937 4.14204C12.6148 4.08824 12.8273 3.99488 13.0195 3.86335C13.0264 3.85866 13.0332 3.85393 13.04 3.84915C13.0725 3.82632 13.1041 3.80256 13.1349 3.77791C13.1555 3.76144 13.1757 3.74457 13.1955 3.72732L20.2734 9.28856C20.2426 9.348 20.2152 9.40866 20.1911 9.47025C20.1849 9.48611 20.1789 9.50209 20.1731 9.51816C20.1592 9.55656 20.1466 9.59527 20.1353 9.63423C20.1187 9.69179 20.1048 9.7499 20.0937 9.80835H13.8177C13.7717 9.56571 13.6798 9.33931 13.5514 9.13852C13.4067 8.9114 13.2127 8.71279 12.9761 8.56065C12.7884 8.4394 12.5781 8.35016 12.3529 8.30066C12.1281 8.2508 11.9001 8.24312 11.6792 8.27388C11.4001 8.3121 11.1403 8.41057 10.9132 8.55574ZM13.8067 10.5785C13.8107 10.5606 13.8144 10.5427 13.8178 10.5248H20.0937C20.1223 10.6751 20.1684 10.8192 20.2299 10.9548C20.2564 11.0134 20.286 11.0709 20.3186 11.127C20.327 11.1414 20.3356 11.1557 20.3443 11.17C20.3811 11.2296 20.4213 11.2874 20.4651 11.3433L12.9072 19.9808L12.8922 19.9721C12.8019 19.9202 12.7085 19.8763 12.613 19.8404C12.5289 19.8088 12.4421 19.783 12.3529 19.7633C12.3349 19.7594 12.317 19.7557 12.299 19.7522V12.0435C12.3487 12.0341 12.3977 12.0227 12.446 12.0095C12.6335 11.9582 12.8095 11.8791 12.9693 11.7768C13.1965 11.632 13.3951 11.438 13.5471 11.2012C13.6682 11.0136 13.7573 10.8035 13.8067 10.5785ZM5.62904 12.1634L3.26538 15.6244C3.29722 15.6564 3.32781 15.6895 3.35711 15.7234C3.54554 15.9413 3.67882 16.1957 3.75293 16.4655C3.83939 16.7801 3.84532 17.1156 3.76435 17.4381L10.3891 20.5139C10.4266 20.4617 10.4669 20.4111 10.51 20.3625C10.5529 20.3141 10.5979 20.2681 10.645 20.2247L5.62904 12.1634Z" />
</svg>
