<?xml version="1.0" encoding="UTF-8"?>
<svg id="Layer_2" data-name="Layer 2" xmlns="http://www.w3.org/2000/svg" viewBox="0 0 403.31 100">
  <defs>
    <style>
      .cls-1, .cls-2 {
        stroke-width: 0px;
      }

      .cls-2 {
        fill: #bed034;
      }
    </style>
  </defs>
  <g id="Layer_2-2" data-name="Layer 2">
    <g>
      <path class="cls-1" d="m59.19,99.93v-62.9c0-6.15-2.16-11.35-6.49-15.68-4.32-4.39-9.53-6.55-15.68-6.55s-11.35,2.16-15.74,6.55-6.49,9.53-6.49,15.68v62.9H0v-62.9C-.27,16.89,16.89-.27,37.03,0c20.13-.27,37.23,16.89,36.96,37.03v62.9h-14.8Z"/>
      <path class="cls-1" d="m106.69,93.24c-7.5-4.46-13.45-10.41-17.91-17.9s-6.69-15.81-6.69-24.93,2.23-17.36,6.69-24.86,10.41-13.45,17.91-17.9c7.5-4.46,15.81-6.69,24.93-6.69s17.36,2.23,24.86,6.69c7.5,4.46,13.45,10.41,17.9,17.9s6.69,15.74,6.69,24.86-2.23,17.43-6.69,24.93-10.41,13.45-17.9,17.9c-7.5,4.46-15.74,6.69-24.86,6.69s-17.43-2.23-24.93-6.69Zm-9.93-42.84c-.27,18.92,15.95,35.13,34.86,34.86,18.92.27,35.07-15.95,34.8-34.86.27-18.92-15.88-35.07-34.8-34.8-18.92-.27-35.14,15.88-34.86,34.8Z"/>
      <path class="cls-1" d="m232.09,100h-16.15L173.17.07h16.08l34.8,81.08L258.78.07h16.08l-42.77,99.93Z"/>
      <path class="cls-1" d="m337.9,33.38v66.62h-14.8v-40.74h-37.03v40.74h-14.8V33.38c-.2-18.18,15.2-33.58,33.31-33.31,18.18-.27,33.58,15.13,33.31,33.31Zm-51.82,11.08h37.03v-11.08c0-5.07-1.82-9.46-5.47-13.04-3.58-3.65-7.97-5.47-13.04-5.47s-9.46,1.82-13.11,5.47c-3.58,3.58-5.41,7.97-5.41,13.04v11.08Z"/>
    </g>
    <path class="cls-2" d="m403.3,26.72v5.89h-40.21c2.38,5.35,7.51,8.86,13.57,8.86h23.67l-11.84,11.84h-11.84c-14.54.22-26.86-12.16-26.65-26.59-.22-14.54,12.11-26.86,26.65-26.65,14.54-.22,26.86,12.11,26.65,26.65Zm-13.13-5.95c-2.32-5.35-7.46-8.86-13.51-8.86s-11.19,3.51-13.57,8.86h27.08Z"/>
    <rect class="cls-2" x="350.01" y="59.11" width="53.3" height="8.86" rx="4.43" ry="4.43"/>
  </g>
</svg>