<svg width="35" height="35" viewBox="0 0 35 35" fill="none" xmlns="http://www.w3.org/2000/svg">
<mask id="mask0_2217_6490" style="mask-type:luminance" maskUnits="userSpaceOnUse" x="2" y="0" width="32" height="34">
<path fill-rule="evenodd" clip-rule="evenodd" d="M2 0H33.2217V34H2V0Z" fill="white"/>
</mask>
<g mask="url(#mask0_2217_6490)">
<path fill-rule="evenodd" clip-rule="evenodd" d="M32.5895 12.9766L30.2574 16.9787L32.5848 20.973C33.434 22.4302 33.434 24.17 32.5849 25.6271C31.7358 27.0843 30.215 27.9542 28.5168 27.9542H23.8619L21.7093 31.6484C20.8513 33.1209 19.3146 34 17.5985 34C15.8824 34 14.3456 33.1209 13.4875 31.6484L11.3349 27.9542H6.67083C4.98496 27.9542 3.47519 27.0906 2.63224 25.644C1.78928 24.1974 1.78928 22.47 2.63224 21.0235L4.96428 17.0213L2.63681 13.0271C1.78773 11.5699 1.78773 9.83002 2.63681 8.37287C3.4859 6.91569 5.00669 6.04575 6.70487 6.04575H11.3598L13.5123 2.35165C14.3703 0.879227 15.9073 0 17.6233 0C19.3394 0 20.8761 0.879136 21.7341 2.35165L23.8867 6.04575H28.5509C30.2368 6.04575 31.7465 6.90943 32.5895 8.35601C33.4325 9.80264 33.4325 11.5299 32.5895 12.9766ZM17.6233 1.01815C16.2788 1.01811 15.0746 1.7069 14.4024 2.86065L12.5465 6.04564H22.7001L20.8442 2.86065C20.172 1.7069 18.9678 1.01815 17.6233 1.01815ZM23.7643 26.0855L23.7145 26.171L23.7072 26.1835L23.5875 26.3889L22.9514 27.4806L22.8419 27.6686L21.52 29.9372L21.1214 30.6212L20.8407 31.1029L20.8301 31.1053L20.8238 31.1161C20.1516 32.2699 18.9252 32.6022 17.5807 32.6022C16.2381 32.6022 15.0578 32.2718 14.385 31.121L14.3638 31.1157L13.6815 29.9447L13.5105 29.6514L6.15098 17.0213L7.48589 14.7305L9.84068 10.6925L9.83903 10.6922L10.1063 10.2336L10.108 10.2339L11.956 7.064L23.2939 7.06005L29.0708 16.9788L23.7643 26.0855ZM31.6949 25.1182C31.0315 26.2565 29.8434 26.9361 28.5167 26.9361H24.4552L29.6639 17.997L31.6948 21.4822C32.3581 22.6205 32.3581 23.9798 31.6949 25.1182ZM3.52222 25.1349C4.17943 26.2627 5.35646 26.936 6.67083 26.936H10.7416L5.55762 18.0395L3.52222 21.5325C2.86506 22.6604 2.86506 24.0071 3.52222 25.1349ZM3.52686 12.518C2.86352 11.3796 2.86352 10.0203 3.52686 8.88198C4.19015 7.7436 5.3782 7.06397 6.70488 7.06397H10.7665L5.55764 16.0031L3.52686 12.518ZM28.5508 7.06397C29.8652 7.06397 31.0423 7.7373 31.6994 8.86517C32.3566 9.99291 32.3566 11.3396 31.6994 12.4675L29.664 15.9605L24.48 7.06397H28.5508Z" fill="#07B6D4"/>
</g>
<path d="M23.1507 18.6034L21.3999 18.2185L22.7616 20.1431V26.1091L27.0752 22.26L27.4302 15.7167L25.2905 16.4865L23.1507 18.6034Z" fill="#07B6D4"/>
<path d="M12.2573 18.6034L14.0081 18.2185L12.6464 20.1431V26.1091L8.3329 22.26L7.97781 15.7167L10.1176 16.4865L12.2573 18.6034Z" fill="#07B6D4"/>
<path fill-rule="evenodd" clip-rule="evenodd" d="M13.2299 20.5282L14.7861 18.2187L15.7587 18.7961H19.6493L20.6219 18.2187L22.1781 20.5282V29.1885L20.3594 32.6228H14.6935L13.2299 29.1885V20.5282Z" fill="#07B6D4"/>
<path d="M22.7617 29.7658L25.2905 27.264V24.7621L22.7617 26.879V29.7658Z" fill="#07B6D4"/>
<path d="M12.6465 29.7658L10.1177 27.264V24.7621L12.6465 26.879V29.7658Z" fill="#07B6D4"/>
<path fill-rule="evenodd" clip-rule="evenodd" d="M17.3151 7.05658H15.1753L13.619 10.7132L16.1479 18.0263H19.4548L21.7891 10.7132L20.2329 7.05658H18.0932V18.0263H17.3151V7.05658Z" fill="#07B6D4"/>
<path d="M16.148 18.0263L7.78343 14.947L6.61627 10.1357L13.8137 10.7131L16.3425 18.0263H16.148Z" fill="#07B6D4"/>
<path d="M19.4549 18.0263L27.8196 14.947L28.9867 10.1357L21.5947 10.7131L19.2604 18.0263H19.4549Z" fill="#07B6D4"/>
<path d="M21.1783 10.1358L24.9083 9.75091L22.54 7.05658H19.8166L21.1783 10.1358Z" fill="#07B6D4"/>
<path d="M12.23 10.1358L8.50003 9.75091L10.8683 7.05658H13.5916L12.23 10.1358Z" fill="#07B6D4"/>
</svg>
