<?xml version="1.0" standalone="no"?>
<svg id="SeamlesslyAnim" width="179" height="36" viewBox="0 0 179 36" fill="none" xmlns="http://www.w3.org/2000/svg" style="max-width: 100%; max-height: 100%;">
<mask id="path-1-outside-1_874_6966" maskUnits="userSpaceOnUse" x="0" y="0" width="179" height="36" fill="black">
<rect fill="white" width="179" height="36" stroke-dasharray="0,0,0,430"><animate attributeType="XML" attributeName="stroke-dasharray" repeatCount="1" dur="2.5s" values="0,0,0,430; 
          0,215,215,0; 
          430,0,0,0" keyTimes="0; 0.5; 1" fill="freeze"></animate></rect>
<path d="M13.9375 13.2156C13.8141 13.413 13.6845 13.5549 13.5488 13.6413C13.413 13.7154 13.2403 13.7524 13.0305 13.7524C12.8084 13.7524 12.5678 13.6907 12.3087 13.5673C12.0619 13.4439 11.772 13.3082 11.4388 13.1601C11.1057 12.9997 10.7231 12.8578 10.2913 12.7344C9.87175 12.611 9.37202 12.5493 8.79209 12.5493C7.89134 12.5493 7.18184 12.7406 6.66361 13.1231C6.15771 13.5056 5.90476 14.0053 5.90476 14.6223C5.90476 15.0295 6.03432 15.3749 6.29344 15.6587C6.56489 15.9302 6.91656 16.1708 7.34842 16.3806C7.79263 16.5903 8.29236 16.7816 8.84761 16.9543C9.40287 17.1148 9.96429 17.2937 10.5319 17.4911C11.1118 17.6885 11.6794 17.9168 12.2347 18.1759C12.7899 18.4227 13.2835 18.7435 13.7154 19.1383C14.1596 19.5209 14.5112 19.9836 14.7703 20.5265C15.0418 21.0694 15.1775 21.7234 15.1775 22.4884C15.1775 23.4015 15.0109 24.2467 14.6778 25.0241C14.357 25.7891 13.8758 26.4554 13.2341 27.023C12.5925 27.5782 11.7966 28.0163 10.8465 28.3371C9.90877 28.6456 8.82293 28.7998 7.58903 28.7998C6.93506 28.7998 6.29344 28.7381 5.66415 28.6147C5.0472 28.5037 4.44875 28.3433 3.86882 28.1335C3.30123 27.9237 2.77065 27.6769 2.27709 27.3931C1.79587 27.1093 1.37017 26.8009 1 26.4677L2.05499 24.7279C2.19071 24.5182 2.35112 24.3577 2.53621 24.2467C2.72129 24.1356 2.95573 24.0801 3.23953 24.0801C3.52333 24.0801 3.78862 24.1603 4.0354 24.3207C4.29452 24.4811 4.59065 24.6539 4.92381 24.839C5.25696 25.0241 5.64564 25.1968 6.08984 25.3572C6.54639 25.5176 7.12015 25.5978 7.81113 25.5978C8.35405 25.5978 8.81676 25.5361 9.19927 25.4127C9.59412 25.277 9.91494 25.1043 10.1617 24.8945C10.4208 24.6847 10.6059 24.4441 10.717 24.1727C10.8404 23.8889 10.9021 23.5989 10.9021 23.3028C10.9021 22.8586 10.7663 22.4946 10.4949 22.2108C10.2357 21.927 9.88409 21.6802 9.43988 21.4704C9.00802 21.2607 8.50829 21.0756 7.94069 20.9152C7.38544 20.7424 6.81167 20.5573 6.2194 20.3599C5.63947 20.1625 5.0657 19.9342 4.49811 19.6751C3.94285 19.4036 3.44312 19.0643 2.99892 18.6571C2.56705 18.2499 2.21539 17.7502 1.94393 17.1579C1.68482 16.5657 1.55526 15.85 1.55526 15.0109C1.55526 14.2336 1.70949 13.4932 2.01797 12.7899C2.32644 12.0866 2.77682 11.4758 3.36909 10.9576C3.9737 10.427 4.72021 10.0075 5.60862 9.699C6.50937 9.37819 7.54585 9.21778 8.71805 9.21778C10.026 9.21778 11.2167 9.43371 12.2902 9.86558C13.3637 10.2974 14.2583 10.865 14.9739 11.5684L13.9375 13.2156Z" stroke-dasharray="0,0,0,86.42242431640625"><animate attributeType="XML" attributeName="stroke-dasharray" repeatCount="1" dur="2.5s" values="0,0,0,86.42242431640625; 
          0,43.211212158203125,43.211212158203125,0; 
          86.42242431640625,0,0,0" keyTimes="0; 0.5; 1" fill="freeze"></animate></path>
<path d="M30.4083 16.8248C30.4083 16.2325 30.3219 15.6773 30.1492 15.159C29.9888 14.6284 29.742 14.1657 29.4088 13.7709C29.0757 13.376 28.65 13.0676 28.1317 12.8455C27.6258 12.611 27.0336 12.4938 26.3549 12.4938C25.0347 12.4938 23.992 12.8701 23.227 13.6228C22.4743 14.3755 21.9931 15.4428 21.7833 16.8248H30.4083ZM21.6908 19.5826C21.7648 20.5573 21.9376 21.4026 22.209 22.1182C22.4805 22.8215 22.8383 23.4076 23.2825 23.8765C23.7267 24.3331 24.2511 24.6786 24.8557 24.913C25.4727 25.1351 26.1513 25.2462 26.8917 25.2462C27.632 25.2462 28.2675 25.1598 28.7981 24.987C29.341 24.8143 29.8099 24.623 30.2047 24.4133C30.6119 24.2035 30.9636 24.0123 31.2597 23.8395C31.5682 23.6668 31.8643 23.5804 32.1481 23.5804C32.5306 23.5804 32.8144 23.7223 32.9995 24.0061L34.3136 25.6719C33.8077 26.2641 33.2401 26.7639 32.6108 27.171C31.9815 27.5659 31.3214 27.8867 30.6304 28.1335C29.9518 28.3679 29.2546 28.5345 28.5389 28.6332C27.8356 28.7319 27.1508 28.7813 26.4845 28.7813C25.1642 28.7813 23.9365 28.5654 22.8013 28.1335C21.6661 27.6893 20.679 27.0415 19.8399 26.1901C19.0009 25.3264 18.3407 24.2652 17.8595 23.0066C17.3783 21.7357 17.1377 20.2674 17.1377 18.6016C17.1377 17.306 17.3475 16.0906 17.767 14.9554C18.1865 13.8079 18.7849 12.8146 19.5623 11.9756C20.352 11.1242 21.3083 10.4517 22.4311 9.95812C23.5663 9.46456 24.8434 9.21778 26.2624 9.21778C27.4593 9.21778 28.5636 9.40904 29.5754 9.79155C30.5872 10.1741 31.4571 10.7355 32.1851 11.4758C32.9131 12.2038 33.4807 13.1046 33.8879 14.1781C34.3074 15.2392 34.5172 16.4546 34.5172 17.8242C34.5172 18.5152 34.4432 18.9841 34.2951 19.2309C34.147 19.4653 33.8632 19.5826 33.4437 19.5826H21.6908Z" stroke-dasharray="0,0,0,106.2376480102539"><animate attributeType="XML" attributeName="stroke-dasharray" repeatCount="1" dur="2.5s" values="0,0,0,106.2376480102539; 
          0,53.11882400512695,53.11882400512695,0; 
          106.2376480102539,0,0,0" keyTimes="0; 0.5; 1" fill="freeze"></animate></path>
<path d="M47.5353 20.3969C46.2151 20.4586 45.1045 20.5758 44.2038 20.7486C43.303 20.909 42.5812 21.1188 42.0383 21.3779C41.4954 21.637 41.1067 21.9393 40.8723 22.2848C40.6378 22.6303 40.5206 23.0066 40.5206 23.4138C40.5206 24.2159 40.755 24.7896 41.2239 25.1351C41.7051 25.4806 42.3283 25.6533 43.0933 25.6533C44.031 25.6533 44.8393 25.4868 45.5179 25.1536C46.2089 24.8081 46.8814 24.2899 47.5353 23.5989V20.3969ZM37.0595 12.1606C39.2435 10.1617 41.8717 9.16226 44.9441 9.16226C46.0546 9.16226 47.0479 9.34734 47.924 9.71751C48.8001 10.0753 49.5404 10.5812 50.145 11.2352C50.7496 11.8768 51.2062 12.648 51.5147 13.5488C51.8355 14.4495 51.9959 15.4366 51.9959 16.5101V28.5037H49.9229C49.4911 28.5037 49.1579 28.442 48.9235 28.3186C48.689 28.1828 48.5039 27.9176 48.3682 27.5227L47.961 26.1531C47.4798 26.5849 47.0109 26.9674 46.5544 27.3006C46.0978 27.6214 45.6228 27.8929 45.1292 28.115C44.6357 28.3371 44.1051 28.5037 43.5375 28.6147C42.9822 28.7381 42.3653 28.7998 41.6866 28.7998C40.8846 28.7998 40.1443 28.6949 39.4656 28.4851C38.787 28.263 38.2009 27.9361 37.7073 27.5042C37.2137 27.0723 36.8312 26.5356 36.5598 25.894C36.2883 25.2523 36.1526 24.5058 36.1526 23.6544C36.1526 23.1732 36.2328 22.6982 36.3932 22.2293C36.5536 21.748 36.8127 21.2915 37.1706 20.8596C37.5407 20.4278 38.0158 20.0206 38.5957 19.6381C39.1756 19.2556 39.8851 18.9224 40.7242 18.6386C41.5756 18.3548 42.5627 18.1265 43.6856 17.9538C44.8084 17.7687 46.0917 17.6577 47.5353 17.6206V16.5101C47.5353 15.2392 47.2639 14.3015 46.7209 13.6968C46.178 13.0799 45.3945 12.7714 44.3704 12.7714C43.63 12.7714 43.0131 12.8578 42.5195 13.0305C42.0383 13.2033 41.6126 13.4007 41.2424 13.6228C40.8723 13.8326 40.5329 14.0238 40.2245 14.1966C39.9283 14.3693 39.5952 14.4557 39.225 14.4557C38.9042 14.4557 38.6327 14.3755 38.4106 14.2151C38.1885 14.0423 38.0096 13.8449 37.8739 13.6228L37.0595 12.1606Z" stroke-dasharray="0,0,0,103.41876983642578"><animate attributeType="XML" attributeName="stroke-dasharray" repeatCount="1" dur="2.5s" values="0,0,0,103.41876983642578; 
          0,51.70938491821289,51.70938491821289,0; 
          103.41876983642578,0,0,0" keyTimes="0; 0.5; 1" fill="freeze"></animate></path>
<path d="M55.8572 28.5037V9.51392H58.652C59.2443 9.51392 59.633 9.79155 59.818 10.3468L60.1142 11.7534C60.4473 11.3833 60.7928 11.044 61.1507 10.7355C61.5208 10.427 61.9095 10.1617 62.3167 9.93961C62.7362 9.71751 63.1804 9.54477 63.6493 9.42138C64.1305 9.28565 64.6549 9.21778 65.2225 9.21778C66.4194 9.21778 67.4004 9.54477 68.1654 10.1987C68.9427 10.8404 69.5227 11.6979 69.9052 12.7714C70.2013 12.1421 70.5715 11.6054 71.0157 11.1612C71.4599 10.7046 71.9473 10.3345 72.4779 10.0507C73.0084 9.76687 73.5699 9.5571 74.1621 9.42138C74.7668 9.28565 75.3714 9.21778 75.976 9.21778C77.0248 9.21778 77.9564 9.37819 78.7708 9.699C79.5851 10.0198 80.2699 10.4887 80.8252 11.1057C81.3805 11.7226 81.8 12.4753 82.0838 13.3637C82.3799 14.2521 82.528 15.2701 82.528 16.4176V28.5037H77.9564V16.4176C77.9564 15.2084 77.6911 14.3015 77.1605 13.6968C76.6299 13.0799 75.8526 12.7714 74.8284 12.7714C74.3596 12.7714 73.9215 12.8516 73.5143 13.012C73.1195 13.1724 72.7678 13.4069 72.4594 13.7154C72.1632 14.0115 71.9288 14.3878 71.756 14.8444C71.5833 15.3009 71.4969 15.8253 71.4969 16.4176V28.5037H66.9068V16.4176C66.9068 15.1467 66.6477 14.2213 66.1294 13.6413C65.6235 13.0614 64.877 12.7714 63.8899 12.7714C63.2236 12.7714 62.6005 12.938 62.0206 13.2711C61.453 13.592 60.9224 14.0362 60.4288 14.6038V28.5037H55.8572Z" stroke-dasharray="0,0,0,151.9896240234375"><animate attributeType="XML" attributeName="stroke-dasharray" repeatCount="1" dur="2.5s" values="0,0,0,151.9896240234375; 
          0,75.99481201171875,75.99481201171875,0; 
          151.9896240234375,0,0,0" keyTimes="0; 0.5; 1" fill="freeze"></animate></path>
<path d="M91.0564 1V28.5037H86.4848V1H91.0564Z" stroke-dasharray="0,0,0,64.15058898925781"><animate attributeType="XML" attributeName="stroke-dasharray" repeatCount="1" dur="2.5s" values="0,0,0,64.15058898925781; 
          0,32.075294494628906,32.075294494628906,0; 
          64.15058898925781,0,0,0" keyTimes="0; 0.5; 1" fill="freeze"></animate></path>
<path d="M107.401 16.8248C107.401 16.2325 107.315 15.6773 107.142 15.159C106.982 14.6284 106.735 14.1657 106.402 13.7709C106.069 13.376 105.643 13.0676 105.125 12.8455C104.619 12.611 104.026 12.4938 103.348 12.4938C102.027 12.4938 100.985 12.8701 100.22 13.6228C99.4671 14.3755 98.9859 15.4428 98.7762 16.8248H107.401ZM98.6836 19.5826C98.7576 20.5573 98.9304 21.4026 99.2018 22.1182C99.4733 22.8215 99.8311 23.4076 100.275 23.8765C100.72 24.3331 101.244 24.6786 101.849 24.913C102.466 25.1351 103.144 25.2462 103.885 25.2462C104.625 25.2462 105.26 25.1598 105.791 24.987C106.334 24.8143 106.803 24.623 107.198 24.4133C107.605 24.2035 107.956 24.0123 108.253 23.8395C108.561 23.6668 108.857 23.5804 109.141 23.5804C109.523 23.5804 109.807 23.7223 109.992 24.0061L111.306 25.6719C110.801 26.2641 110.233 26.7639 109.604 27.171C108.974 27.5659 108.314 27.8867 107.623 28.1335C106.945 28.3679 106.247 28.5345 105.532 28.6332C104.828 28.7319 104.144 28.7813 103.477 28.7813C102.157 28.7813 100.929 28.5654 99.7941 28.1335C98.6589 27.6893 97.6718 27.0415 96.8328 26.1901C95.9937 25.3264 95.3336 24.2652 94.8523 23.0066C94.3711 21.7357 94.1305 20.2674 94.1305 18.6016C94.1305 17.306 94.3403 16.0906 94.7598 14.9554C95.1793 13.8079 95.7778 12.8146 96.5551 11.9756C97.3448 11.1242 98.3011 10.4517 99.424 9.95812C100.559 9.46456 101.836 9.21778 103.255 9.21778C104.452 9.21778 105.556 9.40904 106.568 9.79155C107.58 10.1741 108.45 10.7355 109.178 11.4758C109.906 12.2038 110.474 13.1046 110.881 14.1781C111.3 15.2392 111.51 16.4546 111.51 17.8242C111.51 18.5152 111.436 18.9841 111.288 19.2309C111.14 19.4653 110.856 19.5826 110.437 19.5826H98.6836Z" stroke-dasharray="0,0,0,106.23722076416016"><animate attributeType="XML" attributeName="stroke-dasharray" repeatCount="1" dur="2.5s" values="0,0,0,106.23722076416016; 
          0,53.11861038208008,53.11861038208008,0; 
          106.23722076416016,0,0,0" keyTimes="0; 0.5; 1" fill="freeze"></animate></path>
<path d="M126.083 13.2156C125.959 13.413 125.83 13.5549 125.694 13.6413C125.558 13.7154 125.386 13.7524 125.176 13.7524C124.954 13.7524 124.713 13.6907 124.454 13.5673C124.207 13.4439 123.917 13.3082 123.584 13.1601C123.251 12.9997 122.869 12.8578 122.437 12.7344C122.017 12.611 121.517 12.5493 120.938 12.5493C120.037 12.5493 119.327 12.7406 118.809 13.1231C118.303 13.5056 118.05 14.0053 118.05 14.6223C118.05 15.0295 118.18 15.3749 118.439 15.6587C118.71 15.9302 119.062 16.1708 119.494 16.3806C119.938 16.5903 120.438 16.7816 120.993 16.9543C121.548 17.1148 122.11 17.2937 122.677 17.4911C123.257 17.6885 123.825 17.9168 124.38 18.1759C124.935 18.4227 125.429 18.7435 125.861 19.1383C126.305 19.5209 126.657 19.9836 126.916 20.5265C127.187 21.0694 127.323 21.7234 127.323 22.4884C127.323 23.4015 127.156 24.2467 126.823 25.0241C126.502 25.7891 126.021 26.4554 125.38 27.023C124.738 27.5782 123.942 28.0163 122.992 28.3371C122.054 28.6456 120.968 28.7998 119.734 28.7998C119.08 28.7998 118.439 28.7381 117.81 28.6147C117.193 28.5037 116.594 28.3433 116.014 28.1335C115.447 27.9237 114.916 27.6769 114.423 27.3931C113.941 27.1093 113.516 26.8009 113.145 26.4677L114.2 24.7279C114.336 24.5182 114.497 24.3577 114.682 24.2467C114.867 24.1356 115.101 24.0801 115.385 24.0801C115.669 24.0801 115.934 24.1603 116.181 24.3207C116.44 24.4811 116.736 24.6539 117.069 24.839C117.402 25.0241 117.791 25.1968 118.235 25.3572C118.692 25.5176 119.266 25.5978 119.957 25.5978C120.499 25.5978 120.962 25.5361 121.345 25.4127C121.74 25.277 122.06 25.1043 122.307 24.8945C122.566 24.6847 122.751 24.4441 122.862 24.1727C122.986 23.8889 123.047 23.5989 123.047 23.3028C123.047 22.8586 122.912 22.4946 122.64 22.2108C122.381 21.927 122.03 21.6802 121.585 21.4704C121.153 21.2607 120.654 21.0756 120.086 20.9152C119.531 20.7424 118.957 20.5573 118.365 20.3599C117.785 20.1625 117.211 19.9342 116.644 19.6751C116.088 19.4036 115.589 19.0643 115.144 18.6571C114.712 18.2499 114.361 17.7502 114.089 17.1579C113.83 16.5657 113.701 15.85 113.701 15.0109C113.701 14.2336 113.855 13.4932 114.163 12.7899C114.472 12.0866 114.922 11.4758 115.515 10.9576C116.119 10.427 116.866 10.0075 117.754 9.699C118.655 9.37819 119.691 9.21778 120.863 9.21778C122.171 9.21778 123.362 9.43371 124.436 9.86558C125.509 10.2974 126.404 10.865 127.119 11.5684L126.083 13.2156Z" stroke-dasharray="0,0,0,86.42231750488281"><animate attributeType="XML" attributeName="stroke-dasharray" repeatCount="1" dur="2.5s" values="0,0,0,86.42231750488281; 
          0,43.211158752441406,43.211158752441406,0; 
          86.42231750488281,0,0,0" keyTimes="0; 0.5; 1" fill="freeze"></animate></path>
<path d="M141.906 13.2156C141.783 13.413 141.653 13.5549 141.517 13.6413C141.382 13.7154 141.209 13.7524 140.999 13.7524C140.777 13.7524 140.536 13.6907 140.277 13.5673C140.03 13.4439 139.74 13.3082 139.407 13.1601C139.074 12.9997 138.692 12.8578 138.26 12.7344C137.84 12.611 137.34 12.5493 136.761 12.5493C135.86 12.5493 135.15 12.7406 134.632 13.1231C134.126 13.5056 133.873 14.0053 133.873 14.6223C133.873 15.0295 134.003 15.3749 134.262 15.6587C134.533 15.9302 134.885 16.1708 135.317 16.3806C135.761 16.5903 136.261 16.7816 136.816 16.9543C137.371 17.1148 137.933 17.2937 138.5 17.4911C139.08 17.6885 139.648 17.9168 140.203 18.1759C140.758 18.4227 141.252 18.7435 141.684 19.1383C142.128 19.5209 142.48 19.9836 142.739 20.5265C143.01 21.0694 143.146 21.7234 143.146 22.4884C143.146 23.4015 142.979 24.2467 142.646 25.0241C142.325 25.7891 141.844 26.4554 141.203 27.023C140.561 27.5782 139.765 28.0163 138.815 28.3371C137.877 28.6456 136.791 28.7998 135.557 28.7998C134.904 28.7998 134.262 28.7381 133.633 28.6147C133.016 28.5037 132.417 28.3433 131.837 28.1335C131.27 27.9237 130.739 27.6769 130.246 27.3931C129.764 27.1093 129.339 26.8009 128.968 26.4677L130.023 24.7279C130.159 24.5182 130.32 24.3577 130.505 24.2467C130.69 24.1356 130.924 24.0801 131.208 24.0801C131.492 24.0801 131.757 24.1603 132.004 24.3207C132.263 24.4811 132.559 24.6539 132.892 24.839C133.225 25.0241 133.614 25.1968 134.058 25.3572C134.515 25.5176 135.089 25.5978 135.78 25.5978C136.323 25.5978 136.785 25.5361 137.168 25.4127C137.563 25.277 137.883 25.1043 138.13 24.8945C138.389 24.6847 138.574 24.4441 138.685 24.1727C138.809 23.8889 138.871 23.5989 138.871 23.3028C138.871 22.8586 138.735 22.4946 138.463 22.2108C138.204 21.927 137.853 21.6802 137.408 21.4704C136.976 21.2607 136.477 21.0756 135.909 20.9152C135.354 20.7424 134.78 20.5573 134.188 20.3599C133.608 20.1625 133.034 19.9342 132.467 19.6751C131.911 19.4036 131.412 19.0643 130.967 18.6571C130.536 18.2499 130.184 17.7502 129.912 17.1579C129.653 16.5657 129.524 15.85 129.524 15.0109C129.524 14.2336 129.678 13.4932 129.986 12.7899C130.295 12.0866 130.745 11.4758 131.338 10.9576C131.942 10.427 132.689 10.0075 133.577 9.699C134.478 9.37819 135.514 9.21778 136.687 9.21778C137.994 9.21778 139.185 9.43371 140.259 9.86558C141.332 10.2974 142.227 10.865 142.942 11.5684L141.906 13.2156Z" stroke-dasharray="0,0,0,86.4229507446289"><animate attributeType="XML" attributeName="stroke-dasharray" repeatCount="1" dur="2.5s" values="0,0,0,86.4229507446289; 
          0,43.21147537231445,43.21147537231445,0; 
          86.4229507446289,0,0,0" keyTimes="0; 0.5; 1" fill="freeze"></animate></path>
<path d="M150.77 1V28.5037H146.198V1H150.77Z" stroke-dasharray="0,0,0,64.15141296386719"><animate attributeType="XML" attributeName="stroke-dasharray" repeatCount="1" dur="2.5s" values="0,0,0,64.15141296386719; 
          0,32.075706481933594,32.075706481933594,0; 
          64.15141296386719,0,0,0" keyTimes="0; 0.5; 1" fill="freeze"></animate></path>
<path d="M172.13 9.51392L161.784 33.7231C161.648 34.0439 161.469 34.2845 161.247 34.4449C161.038 34.6176 160.711 34.704 160.266 34.704H156.861L160.414 27.0785L152.733 9.51392H156.75C157.108 9.51392 157.385 9.60029 157.583 9.77304C157.792 9.94578 157.947 10.1432 158.045 10.3653L162.08 20.2118C162.216 20.545 162.327 20.8781 162.413 21.2113C162.512 21.5445 162.605 21.8838 162.691 22.2293C162.802 21.8838 162.913 21.5445 163.024 21.2113C163.135 20.8658 163.259 20.5265 163.394 20.1933L167.207 10.3653C167.306 10.1185 167.466 9.91494 167.688 9.75453C167.923 9.59412 168.182 9.51392 168.466 9.51392H172.13Z" stroke-dasharray="0,0,0,95.65383911132812"><animate attributeType="XML" attributeName="stroke-dasharray" repeatCount="1" dur="2.5s" values="0,0,0,95.65383911132812; 
          0,47.82691955566406,47.82691955566406,0; 
          95.65383911132812,0,0,0" keyTimes="0; 0.5; 1" fill="freeze"></animate></path>
<path d="M171.953 25.9865C171.953 25.604 172.021 25.24 172.157 24.8945C172.305 24.549 172.502 24.2529 172.749 24.0061C172.996 23.7593 173.292 23.5619 173.637 23.4138C173.983 23.2657 174.353 23.1917 174.748 23.1917C175.143 23.1917 175.507 23.2657 175.84 23.4138C176.185 23.5619 176.481 23.7593 176.728 24.0061C176.987 24.2529 177.191 24.549 177.339 24.8945C177.487 25.24 177.561 25.604 177.561 25.9865C177.561 26.3813 177.487 26.7515 177.339 27.097C177.191 27.4302 176.987 27.7201 176.728 27.9669C176.481 28.2137 176.185 28.4049 175.84 28.5407C175.507 28.6887 175.143 28.7628 174.748 28.7628C174.353 28.7628 173.983 28.6887 173.637 28.5407C173.292 28.4049 172.996 28.2137 172.749 27.9669C172.502 27.7201 172.305 27.4302 172.157 27.097C172.021 26.7515 171.953 26.3813 171.953 25.9865Z" stroke-dasharray="0,0,0,17.608556747436523"><animate attributeType="XML" attributeName="stroke-dasharray" repeatCount="1" dur="2.5s" values="0,0,0,17.608556747436523; 
          0,8.804278373718262,8.804278373718262,0; 
          17.608556747436523,0,0,0" keyTimes="0; 0.5; 1" fill="freeze"></animate></path>
</mask>
<path d="M13.9375 13.2156C13.8141 13.413 13.6845 13.5549 13.5488 13.6413C13.413 13.7154 13.2403 13.7524 13.0305 13.7524C12.8084 13.7524 12.5678 13.6907 12.3087 13.5673C12.0619 13.4439 11.772 13.3082 11.4388 13.1601C11.1057 12.9997 10.7231 12.8578 10.2913 12.7344C9.87175 12.611 9.37202 12.5493 8.79209 12.5493C7.89134 12.5493 7.18184 12.7406 6.66361 13.1231C6.15771 13.5056 5.90476 14.0053 5.90476 14.6223C5.90476 15.0295 6.03432 15.3749 6.29344 15.6587C6.56489 15.9302 6.91656 16.1708 7.34842 16.3806C7.79263 16.5903 8.29236 16.7816 8.84761 16.9543C9.40287 17.1148 9.96429 17.2937 10.5319 17.4911C11.1118 17.6885 11.6794 17.9168 12.2347 18.1759C12.7899 18.4227 13.2835 18.7435 13.7154 19.1383C14.1596 19.5209 14.5112 19.9836 14.7703 20.5265C15.0418 21.0694 15.1775 21.7234 15.1775 22.4884C15.1775 23.4015 15.0109 24.2467 14.6778 25.0241C14.357 25.7891 13.8758 26.4554 13.2341 27.023C12.5925 27.5782 11.7966 28.0163 10.8465 28.3371C9.90877 28.6456 8.82293 28.7998 7.58903 28.7998C6.93506 28.7998 6.29344 28.7381 5.66415 28.6147C5.0472 28.5037 4.44875 28.3433 3.86882 28.1335C3.30123 27.9237 2.77065 27.6769 2.27709 27.3931C1.79587 27.1093 1.37017 26.8009 1 26.4677L2.05499 24.7279C2.19071 24.5182 2.35112 24.3577 2.53621 24.2467C2.72129 24.1356 2.95573 24.0801 3.23953 24.0801C3.52333 24.0801 3.78862 24.1603 4.0354 24.3207C4.29452 24.4811 4.59065 24.6539 4.92381 24.839C5.25696 25.0241 5.64564 25.1968 6.08984 25.3572C6.54639 25.5176 7.12015 25.5978 7.81113 25.5978C8.35405 25.5978 8.81676 25.5361 9.19927 25.4127C9.59412 25.277 9.91494 25.1043 10.1617 24.8945C10.4208 24.6847 10.6059 24.4441 10.717 24.1727C10.8404 23.8889 10.9021 23.5989 10.9021 23.3028C10.9021 22.8586 10.7663 22.4946 10.4949 22.2108C10.2357 21.927 9.88409 21.6802 9.43988 21.4704C9.00802 21.2607 8.50829 21.0756 7.94069 20.9152C7.38544 20.7424 6.81167 20.5573 6.2194 20.3599C5.63947 20.1625 5.0657 19.9342 4.49811 19.6751C3.94285 19.4036 3.44312 19.0643 2.99892 18.6571C2.56705 18.2499 2.21539 17.7502 1.94393 17.1579C1.68482 16.5657 1.55526 15.85 1.55526 15.0109C1.55526 14.2336 1.70949 13.4932 2.01797 12.7899C2.32644 12.0866 2.77682 11.4758 3.36909 10.9576C3.9737 10.427 4.72021 10.0075 5.60862 9.699C6.50937 9.37819 7.54585 9.21778 8.71805 9.21778C10.026 9.21778 11.2167 9.43371 12.2902 9.86558C13.3637 10.2974 14.2583 10.865 14.9739 11.5684L13.9375 13.2156Z" stroke="black" stroke-width="1.54238" mask="url(#path-1-outside-1_874_6966)" stroke-dasharray="0,0,0,86.42242431640625"><animate attributeType="XML" attributeName="stroke-dasharray" repeatCount="1" dur="2.5s" values="0,0,0,86.42242431640625; 
          0,43.211212158203125,43.211212158203125,0; 
          86.42242431640625,0,0,0" keyTimes="0; 0.5; 1" fill="freeze"></animate></path>
<path d="M30.4083 16.8248C30.4083 16.2325 30.3219 15.6773 30.1492 15.159C29.9888 14.6284 29.742 14.1657 29.4088 13.7709C29.0757 13.376 28.65 13.0676 28.1317 12.8455C27.6258 12.611 27.0336 12.4938 26.3549 12.4938C25.0347 12.4938 23.992 12.8701 23.227 13.6228C22.4743 14.3755 21.9931 15.4428 21.7833 16.8248H30.4083ZM21.6908 19.5826C21.7648 20.5573 21.9376 21.4026 22.209 22.1182C22.4805 22.8215 22.8383 23.4076 23.2825 23.8765C23.7267 24.3331 24.2511 24.6786 24.8557 24.913C25.4727 25.1351 26.1513 25.2462 26.8917 25.2462C27.632 25.2462 28.2675 25.1598 28.7981 24.987C29.341 24.8143 29.8099 24.623 30.2047 24.4133C30.6119 24.2035 30.9636 24.0123 31.2597 23.8395C31.5682 23.6668 31.8643 23.5804 32.1481 23.5804C32.5306 23.5804 32.8144 23.7223 32.9995 24.0061L34.3136 25.6719C33.8077 26.2641 33.2401 26.7639 32.6108 27.171C31.9815 27.5659 31.3214 27.8867 30.6304 28.1335C29.9518 28.3679 29.2546 28.5345 28.5389 28.6332C27.8356 28.7319 27.1508 28.7813 26.4845 28.7813C25.1642 28.7813 23.9365 28.5654 22.8013 28.1335C21.6661 27.6893 20.679 27.0415 19.8399 26.1901C19.0009 25.3264 18.3407 24.2652 17.8595 23.0066C17.3783 21.7357 17.1377 20.2674 17.1377 18.6016C17.1377 17.306 17.3475 16.0906 17.767 14.9554C18.1865 13.8079 18.7849 12.8146 19.5623 11.9756C20.352 11.1242 21.3083 10.4517 22.4311 9.95812C23.5663 9.46456 24.8434 9.21778 26.2624 9.21778C27.4593 9.21778 28.5636 9.40904 29.5754 9.79155C30.5872 10.1741 31.4571 10.7355 32.1851 11.4758C32.9131 12.2038 33.4807 13.1046 33.8879 14.1781C34.3074 15.2392 34.5172 16.4546 34.5172 17.8242C34.5172 18.5152 34.4432 18.9841 34.2951 19.2309C34.147 19.4653 33.8632 19.5826 33.4437 19.5826H21.6908Z" stroke="black" stroke-width="1.54238" mask="url(#path-1-outside-1_874_6966)" stroke-dasharray="0,0,0,106.2376480102539"><animate attributeType="XML" attributeName="stroke-dasharray" repeatCount="1" dur="2.5s" values="0,0,0,106.2376480102539; 
          0,53.11882400512695,53.11882400512695,0; 
          106.2376480102539,0,0,0" keyTimes="0; 0.5; 1" fill="freeze"></animate></path>
<path d="M47.5353 20.3969C46.2151 20.4586 45.1045 20.5758 44.2038 20.7486C43.303 20.909 42.5812 21.1188 42.0383 21.3779C41.4954 21.637 41.1067 21.9393 40.8723 22.2848C40.6378 22.6303 40.5206 23.0066 40.5206 23.4138C40.5206 24.2159 40.755 24.7896 41.2239 25.1351C41.7051 25.4806 42.3283 25.6533 43.0933 25.6533C44.031 25.6533 44.8393 25.4868 45.5179 25.1536C46.2089 24.8081 46.8814 24.2899 47.5353 23.5989V20.3969ZM37.0595 12.1606C39.2435 10.1617 41.8717 9.16226 44.9441 9.16226C46.0546 9.16226 47.0479 9.34734 47.924 9.71751C48.8001 10.0753 49.5404 10.5812 50.145 11.2352C50.7496 11.8768 51.2062 12.648 51.5147 13.5488C51.8355 14.4495 51.9959 15.4366 51.9959 16.5101V28.5037H49.9229C49.4911 28.5037 49.1579 28.442 48.9235 28.3186C48.689 28.1828 48.5039 27.9176 48.3682 27.5227L47.961 26.1531C47.4798 26.5849 47.0109 26.9674 46.5544 27.3006C46.0978 27.6214 45.6228 27.8929 45.1292 28.115C44.6357 28.3371 44.1051 28.5037 43.5375 28.6147C42.9822 28.7381 42.3653 28.7998 41.6866 28.7998C40.8846 28.7998 40.1443 28.6949 39.4656 28.4851C38.787 28.263 38.2009 27.9361 37.7073 27.5042C37.2137 27.0723 36.8312 26.5356 36.5598 25.894C36.2883 25.2523 36.1526 24.5058 36.1526 23.6544C36.1526 23.1732 36.2328 22.6982 36.3932 22.2293C36.5536 21.748 36.8127 21.2915 37.1706 20.8596C37.5407 20.4278 38.0158 20.0206 38.5957 19.6381C39.1756 19.2556 39.8851 18.9224 40.7242 18.6386C41.5756 18.3548 42.5627 18.1265 43.6856 17.9538C44.8084 17.7687 46.0917 17.6577 47.5353 17.6206V16.5101C47.5353 15.2392 47.2639 14.3015 46.7209 13.6968C46.178 13.0799 45.3945 12.7714 44.3704 12.7714C43.63 12.7714 43.0131 12.8578 42.5195 13.0305C42.0383 13.2033 41.6126 13.4007 41.2424 13.6228C40.8723 13.8326 40.5329 14.0238 40.2245 14.1966C39.9283 14.3693 39.5952 14.4557 39.225 14.4557C38.9042 14.4557 38.6327 14.3755 38.4106 14.2151C38.1885 14.0423 38.0096 13.8449 37.8739 13.6228L37.0595 12.1606Z" stroke="black" stroke-width="1.54238" mask="url(#path-1-outside-1_874_6966)" stroke-dasharray="0,0,0,103.41876983642578"><animate attributeType="XML" attributeName="stroke-dasharray" repeatCount="1" dur="2.5s" values="0,0,0,103.41876983642578; 
          0,51.70938491821289,51.70938491821289,0; 
          103.41876983642578,0,0,0" keyTimes="0; 0.5; 1" fill="freeze"></animate></path>
<path d="M55.8572 28.5037V9.51392H58.652C59.2443 9.51392 59.633 9.79155 59.818 10.3468L60.1142 11.7534C60.4473 11.3833 60.7928 11.044 61.1507 10.7355C61.5208 10.427 61.9095 10.1617 62.3167 9.93961C62.7362 9.71751 63.1804 9.54477 63.6493 9.42138C64.1305 9.28565 64.6549 9.21778 65.2225 9.21778C66.4194 9.21778 67.4004 9.54477 68.1654 10.1987C68.9427 10.8404 69.5227 11.6979 69.9052 12.7714C70.2013 12.1421 70.5715 11.6054 71.0157 11.1612C71.4599 10.7046 71.9473 10.3345 72.4779 10.0507C73.0084 9.76687 73.5699 9.5571 74.1621 9.42138C74.7668 9.28565 75.3714 9.21778 75.976 9.21778C77.0248 9.21778 77.9564 9.37819 78.7708 9.699C79.5851 10.0198 80.2699 10.4887 80.8252 11.1057C81.3805 11.7226 81.8 12.4753 82.0838 13.3637C82.3799 14.2521 82.528 15.2701 82.528 16.4176V28.5037H77.9564V16.4176C77.9564 15.2084 77.6911 14.3015 77.1605 13.6968C76.6299 13.0799 75.8526 12.7714 74.8284 12.7714C74.3596 12.7714 73.9215 12.8516 73.5143 13.012C73.1195 13.1724 72.7678 13.4069 72.4594 13.7154C72.1632 14.0115 71.9288 14.3878 71.756 14.8444C71.5833 15.3009 71.4969 15.8253 71.4969 16.4176V28.5037H66.9068V16.4176C66.9068 15.1467 66.6477 14.2213 66.1294 13.6413C65.6235 13.0614 64.877 12.7714 63.8899 12.7714C63.2236 12.7714 62.6005 12.938 62.0206 13.2711C61.453 13.592 60.9224 14.0362 60.4288 14.6038V28.5037H55.8572Z" stroke="black" stroke-width="1.54238" mask="url(#path-1-outside-1_874_6966)" stroke-dasharray="0,0,0,151.9896240234375"><animate attributeType="XML" attributeName="stroke-dasharray" repeatCount="1" dur="2.5s" values="0,0,0,151.9896240234375; 
          0,75.99481201171875,75.99481201171875,0; 
          151.9896240234375,0,0,0" keyTimes="0; 0.5; 1" fill="freeze"></animate></path>
<path d="M91.0564 1V28.5037H86.4848V1H91.0564Z" stroke="black" stroke-width="1.54238" mask="url(#path-1-outside-1_874_6966)" stroke-dasharray="0,0,0,64.15058898925781"><animate attributeType="XML" attributeName="stroke-dasharray" repeatCount="1" dur="2.5s" values="0,0,0,64.15058898925781; 
          0,32.075294494628906,32.075294494628906,0; 
          64.15058898925781,0,0,0" keyTimes="0; 0.5; 1" fill="freeze"></animate></path>
<path d="M107.401 16.8248C107.401 16.2325 107.315 15.6773 107.142 15.159C106.982 14.6284 106.735 14.1657 106.402 13.7709C106.069 13.376 105.643 13.0676 105.125 12.8455C104.619 12.611 104.026 12.4938 103.348 12.4938C102.027 12.4938 100.985 12.8701 100.22 13.6228C99.4671 14.3755 98.9859 15.4428 98.7762 16.8248H107.401ZM98.6836 19.5826C98.7576 20.5573 98.9304 21.4026 99.2018 22.1182C99.4733 22.8215 99.8311 23.4076 100.275 23.8765C100.72 24.3331 101.244 24.6786 101.849 24.913C102.466 25.1351 103.144 25.2462 103.885 25.2462C104.625 25.2462 105.26 25.1598 105.791 24.987C106.334 24.8143 106.803 24.623 107.198 24.4133C107.605 24.2035 107.956 24.0123 108.253 23.8395C108.561 23.6668 108.857 23.5804 109.141 23.5804C109.523 23.5804 109.807 23.7223 109.992 24.0061L111.306 25.6719C110.801 26.2641 110.233 26.7639 109.604 27.171C108.974 27.5659 108.314 27.8867 107.623 28.1335C106.945 28.3679 106.247 28.5345 105.532 28.6332C104.828 28.7319 104.144 28.7813 103.477 28.7813C102.157 28.7813 100.929 28.5654 99.7941 28.1335C98.6589 27.6893 97.6718 27.0415 96.8328 26.1901C95.9937 25.3264 95.3336 24.2652 94.8523 23.0066C94.3711 21.7357 94.1305 20.2674 94.1305 18.6016C94.1305 17.306 94.3403 16.0906 94.7598 14.9554C95.1793 13.8079 95.7778 12.8146 96.5551 11.9756C97.3448 11.1242 98.3011 10.4517 99.424 9.95812C100.559 9.46456 101.836 9.21778 103.255 9.21778C104.452 9.21778 105.556 9.40904 106.568 9.79155C107.58 10.1741 108.45 10.7355 109.178 11.4758C109.906 12.2038 110.474 13.1046 110.881 14.1781C111.3 15.2392 111.51 16.4546 111.51 17.8242C111.51 18.5152 111.436 18.9841 111.288 19.2309C111.14 19.4653 110.856 19.5826 110.437 19.5826H98.6836Z" stroke="black" stroke-width="1.54238" mask="url(#path-1-outside-1_874_6966)" stroke-dasharray="0,0,0,106.23722076416016"><animate attributeType="XML" attributeName="stroke-dasharray" repeatCount="1" dur="2.5s" values="0,0,0,106.23722076416016; 
          0,53.11861038208008,53.11861038208008,0; 
          106.23722076416016,0,0,0" keyTimes="0; 0.5; 1" fill="freeze"></animate></path>
<path d="M126.083 13.2156C125.959 13.413 125.83 13.5549 125.694 13.6413C125.558 13.7154 125.386 13.7524 125.176 13.7524C124.954 13.7524 124.713 13.6907 124.454 13.5673C124.207 13.4439 123.917 13.3082 123.584 13.1601C123.251 12.9997 122.869 12.8578 122.437 12.7344C122.017 12.611 121.517 12.5493 120.938 12.5493C120.037 12.5493 119.327 12.7406 118.809 13.1231C118.303 13.5056 118.05 14.0053 118.05 14.6223C118.05 15.0295 118.18 15.3749 118.439 15.6587C118.71 15.9302 119.062 16.1708 119.494 16.3806C119.938 16.5903 120.438 16.7816 120.993 16.9543C121.548 17.1148 122.11 17.2937 122.677 17.4911C123.257 17.6885 123.825 17.9168 124.38 18.1759C124.935 18.4227 125.429 18.7435 125.861 19.1383C126.305 19.5209 126.657 19.9836 126.916 20.5265C127.187 21.0694 127.323 21.7234 127.323 22.4884C127.323 23.4015 127.156 24.2467 126.823 25.0241C126.502 25.7891 126.021 26.4554 125.38 27.023C124.738 27.5782 123.942 28.0163 122.992 28.3371C122.054 28.6456 120.968 28.7998 119.734 28.7998C119.08 28.7998 118.439 28.7381 117.81 28.6147C117.193 28.5037 116.594 28.3433 116.014 28.1335C115.447 27.9237 114.916 27.6769 114.423 27.3931C113.941 27.1093 113.516 26.8009 113.145 26.4677L114.2 24.7279C114.336 24.5182 114.497 24.3577 114.682 24.2467C114.867 24.1356 115.101 24.0801 115.385 24.0801C115.669 24.0801 115.934 24.1603 116.181 24.3207C116.44 24.4811 116.736 24.6539 117.069 24.839C117.402 25.0241 117.791 25.1968 118.235 25.3572C118.692 25.5176 119.266 25.5978 119.957 25.5978C120.499 25.5978 120.962 25.5361 121.345 25.4127C121.74 25.277 122.06 25.1043 122.307 24.8945C122.566 24.6847 122.751 24.4441 122.862 24.1727C122.986 23.8889 123.047 23.5989 123.047 23.3028C123.047 22.8586 122.912 22.4946 122.64 22.2108C122.381 21.927 122.03 21.6802 121.585 21.4704C121.153 21.2607 120.654 21.0756 120.086 20.9152C119.531 20.7424 118.957 20.5573 118.365 20.3599C117.785 20.1625 117.211 19.9342 116.644 19.6751C116.088 19.4036 115.589 19.0643 115.144 18.6571C114.712 18.2499 114.361 17.7502 114.089 17.1579C113.83 16.5657 113.701 15.85 113.701 15.0109C113.701 14.2336 113.855 13.4932 114.163 12.7899C114.472 12.0866 114.922 11.4758 115.515 10.9576C116.119 10.427 116.866 10.0075 117.754 9.699C118.655 9.37819 119.691 9.21778 120.863 9.21778C122.171 9.21778 123.362 9.43371 124.436 9.86558C125.509 10.2974 126.404 10.865 127.119 11.5684L126.083 13.2156Z" stroke="black" stroke-width="1.54238" mask="url(#path-1-outside-1_874_6966)" stroke-dasharray="0,0,0,86.42231750488281"><animate attributeType="XML" attributeName="stroke-dasharray" repeatCount="1" dur="2.5s" values="0,0,0,86.42231750488281; 
          0,43.211158752441406,43.211158752441406,0; 
          86.42231750488281,0,0,0" keyTimes="0; 0.5; 1" fill="freeze"></animate></path>
<path d="M141.906 13.2156C141.783 13.413 141.653 13.5549 141.517 13.6413C141.382 13.7154 141.209 13.7524 140.999 13.7524C140.777 13.7524 140.536 13.6907 140.277 13.5673C140.03 13.4439 139.74 13.3082 139.407 13.1601C139.074 12.9997 138.692 12.8578 138.26 12.7344C137.84 12.611 137.34 12.5493 136.761 12.5493C135.86 12.5493 135.15 12.7406 134.632 13.1231C134.126 13.5056 133.873 14.0053 133.873 14.6223C133.873 15.0295 134.003 15.3749 134.262 15.6587C134.533 15.9302 134.885 16.1708 135.317 16.3806C135.761 16.5903 136.261 16.7816 136.816 16.9543C137.371 17.1148 137.933 17.2937 138.5 17.4911C139.08 17.6885 139.648 17.9168 140.203 18.1759C140.758 18.4227 141.252 18.7435 141.684 19.1383C142.128 19.5209 142.48 19.9836 142.739 20.5265C143.01 21.0694 143.146 21.7234 143.146 22.4884C143.146 23.4015 142.979 24.2467 142.646 25.0241C142.325 25.7891 141.844 26.4554 141.203 27.023C140.561 27.5782 139.765 28.0163 138.815 28.3371C137.877 28.6456 136.791 28.7998 135.557 28.7998C134.904 28.7998 134.262 28.7381 133.633 28.6147C133.016 28.5037 132.417 28.3433 131.837 28.1335C131.27 27.9237 130.739 27.6769 130.246 27.3931C129.764 27.1093 129.339 26.8009 128.968 26.4677L130.023 24.7279C130.159 24.5182 130.32 24.3577 130.505 24.2467C130.69 24.1356 130.924 24.0801 131.208 24.0801C131.492 24.0801 131.757 24.1603 132.004 24.3207C132.263 24.4811 132.559 24.6539 132.892 24.839C133.225 25.0241 133.614 25.1968 134.058 25.3572C134.515 25.5176 135.089 25.5978 135.78 25.5978C136.323 25.5978 136.785 25.5361 137.168 25.4127C137.563 25.277 137.883 25.1043 138.13 24.8945C138.389 24.6847 138.574 24.4441 138.685 24.1727C138.809 23.8889 138.871 23.5989 138.871 23.3028C138.871 22.8586 138.735 22.4946 138.463 22.2108C138.204 21.927 137.853 21.6802 137.408 21.4704C136.976 21.2607 136.477 21.0756 135.909 20.9152C135.354 20.7424 134.78 20.5573 134.188 20.3599C133.608 20.1625 133.034 19.9342 132.467 19.6751C131.911 19.4036 131.412 19.0643 130.967 18.6571C130.536 18.2499 130.184 17.7502 129.912 17.1579C129.653 16.5657 129.524 15.85 129.524 15.0109C129.524 14.2336 129.678 13.4932 129.986 12.7899C130.295 12.0866 130.745 11.4758 131.338 10.9576C131.942 10.427 132.689 10.0075 133.577 9.699C134.478 9.37819 135.514 9.21778 136.687 9.21778C137.994 9.21778 139.185 9.43371 140.259 9.86558C141.332 10.2974 142.227 10.865 142.942 11.5684L141.906 13.2156Z" stroke="black" stroke-width="1.54238" mask="url(#path-1-outside-1_874_6966)" stroke-dasharray="0,0,0,86.4229507446289"><animate attributeType="XML" attributeName="stroke-dasharray" repeatCount="1" dur="2.5s" values="0,0,0,86.4229507446289; 
          0,43.21147537231445,43.21147537231445,0; 
          86.4229507446289,0,0,0" keyTimes="0; 0.5; 1" fill="freeze"></animate></path>
<path d="M150.77 1V28.5037H146.198V1H150.77Z" stroke="black" stroke-width="1.54238" mask="url(#path-1-outside-1_874_6966)" stroke-dasharray="0,0,0,64.15141296386719"><animate attributeType="XML" attributeName="stroke-dasharray" repeatCount="1" dur="2.5s" values="0,0,0,64.15141296386719; 
          0,32.075706481933594,32.075706481933594,0; 
          64.15141296386719,0,0,0" keyTimes="0; 0.5; 1" fill="freeze"></animate></path>
<path d="M172.13 9.51392L161.784 33.7231C161.648 34.0439 161.469 34.2845 161.247 34.4449C161.038 34.6176 160.711 34.704 160.266 34.704H156.861L160.414 27.0785L152.733 9.51392H156.75C157.108 9.51392 157.385 9.60029 157.583 9.77304C157.792 9.94578 157.947 10.1432 158.045 10.3653L162.08 20.2118C162.216 20.545 162.327 20.8781 162.413 21.2113C162.512 21.5445 162.605 21.8838 162.691 22.2293C162.802 21.8838 162.913 21.5445 163.024 21.2113C163.135 20.8658 163.259 20.5265 163.394 20.1933L167.207 10.3653C167.306 10.1185 167.466 9.91494 167.688 9.75453C167.923 9.59412 168.182 9.51392 168.466 9.51392H172.13Z" stroke="black" stroke-width="1.54238" mask="url(#path-1-outside-1_874_6966)" stroke-dasharray="0,0,0,95.65383911132812"><animate attributeType="XML" attributeName="stroke-dasharray" repeatCount="1" dur="2.5s" values="0,0,0,95.65383911132812; 
          0,47.82691955566406,47.82691955566406,0; 
          95.65383911132812,0,0,0" keyTimes="0; 0.5; 1" fill="freeze"></animate></path>
<path d="M171.953 25.9865C171.953 25.604 172.021 25.24 172.157 24.8945C172.305 24.549 172.502 24.2529 172.749 24.0061C172.996 23.7593 173.292 23.5619 173.637 23.4138C173.983 23.2657 174.353 23.1917 174.748 23.1917C175.143 23.1917 175.507 23.2657 175.84 23.4138C176.185 23.5619 176.481 23.7593 176.728 24.0061C176.987 24.2529 177.191 24.549 177.339 24.8945C177.487 25.24 177.561 25.604 177.561 25.9865C177.561 26.3813 177.487 26.7515 177.339 27.097C177.191 27.4302 176.987 27.7201 176.728 27.9669C176.481 28.2137 176.185 28.4049 175.84 28.5407C175.507 28.6887 175.143 28.7628 174.748 28.7628C174.353 28.7628 173.983 28.6887 173.637 28.5407C173.292 28.4049 172.996 28.2137 172.749 27.9669C172.502 27.7201 172.305 27.4302 172.157 27.097C172.021 26.7515 171.953 26.3813 171.953 25.9865Z" stroke="black" stroke-width="1.54238" mask="url(#path-1-outside-1_874_6966)" stroke-dasharray="0,0,0,17.608556747436523"><animate attributeType="XML" attributeName="stroke-dasharray" repeatCount="1" dur="2.5s" values="0,0,0,17.608556747436523; 
          0,8.804278373718262,8.804278373718262,0; 
          17.608556747436523,0,0,0" keyTimes="0; 0.5; 1" fill="freeze"></animate></path>
</svg>