<svg width="680" height="576" viewBox="0 0 680 576" fill="none" xmlns="http://www.w3.org/2000/svg">
<path d="M136.75 192C136.75 138.877 119.656 90.7996 102.574 56.0151C94.0317 38.6203 85.4894 24.5432 79.0816 14.8133C75.8777 9.94818 73.207 6.16956 71.3365 3.60602C70.4013 2.32428 69.666 1.34625 69.1641 0.688049C69.1138 0.622131 69.0659 0.559448 69.0203 0.5H439.5L439.5 575.5H0.500446C0.642263 496.084 34.5575 440.229 68.5523 384.26L68.5726 384.226C102.625 328.162 136.75 271.978 136.75 192Z" fill="#DBEAFE" stroke="black"/>
<path d="M216.75 192C216.75 138.877 199.656 90.7996 182.574 56.0151C174.032 38.6203 165.489 24.5432 159.082 14.8133C155.878 9.94818 153.207 6.16956 151.337 3.60602C150.401 2.32428 149.666 1.34625 149.164 0.688049C149.114 0.622131 149.066 0.559448 149.02 0.5H519.5V575.5H80.5004C80.6423 496.084 114.558 440.229 148.552 384.26L148.573 384.226C182.625 328.162 216.75 271.978 216.75 192Z" fill="#BFDBFE" stroke="black"/>
<path d="M296.75 192C296.75 138.877 279.656 90.7996 262.574 56.0151C254.032 38.6203 245.489 24.5432 239.082 14.8133C235.878 9.94818 233.207 6.16956 231.337 3.60602C230.401 2.32428 229.666 1.34625 229.164 0.688049C229.114 0.622131 229.066 0.559448 229.02 0.5H599.5V575.5H160.5C160.642 496.084 194.558 440.229 228.552 384.26L228.573 384.226C262.625 328.162 296.75 271.978 296.75 192Z" fill="#93C5FD" stroke="black"/>
<path d="M376.75 192C376.75 138.877 359.656 90.7996 342.574 56.0151C334.032 38.6203 325.489 24.5432 319.082 14.8133C315.878 9.94818 313.207 6.16956 311.337 3.60602C310.401 2.32428 309.666 1.34625 309.164 0.688049C309.114 0.622131 309.066 0.559448 309.02 0.5H679.5V575.5H240.5C240.642 496.084 274.558 440.229 308.552 384.26L308.573 384.226C342.625 328.162 376.75 271.978 376.75 192Z" fill="#60A5FA" stroke="black"/>
</svg>
