<svg width="1920" height="1080" viewBox="0 0 1920 1080" fill="none" xmlns="http://www.w3.org/2000/svg">
<g clip-path="url(#clip0_2075_29057)">
<path d="M257.3 359.374C257.3 259.422 225.136 168.962 192.996 103.514C176.924 70.7852 160.851 44.2985 148.795 25.9915C142.766 16.8376 137.741 9.72791 134.222 4.90466C132.462 2.49292 131.079 0.65271 130.134 -0.585571C130.04 -0.709595 129.95 -0.827515 129.864 -0.939453H826.934L826.934 1080.94H0.941606C1.20844 931.517 65.0211 826.425 128.984 721.117L129.021 721.054C193.092 615.568 257.3 509.855 257.3 359.374Z" fill="#DBEAFE" stroke="black" stroke-width="1.88153"/>
<path d="M407.823 359.374C407.823 259.422 375.66 168.962 343.519 103.514C327.447 70.7852 311.375 44.2985 299.318 25.9915C293.29 16.8376 288.265 9.72791 284.745 4.90466C282.986 2.49292 281.602 0.65271 280.658 -0.585571C280.563 -0.709595 280.473 -0.827515 280.388 -0.939453H977.457L977.457 1080.94H151.465C151.732 931.517 215.545 826.425 279.507 721.117L279.545 721.054C343.615 615.568 407.823 509.855 407.823 359.374Z" fill="#BFDBFE" stroke="black" stroke-width="1.88153"/>
<path d="M558.347 359.374C558.347 259.422 526.183 168.962 494.043 103.514C477.971 70.7852 461.898 44.2985 449.842 25.9915C443.813 16.8376 438.788 9.72791 435.269 4.90466C433.509 2.49292 432.126 0.65271 431.181 -0.585571C431.087 -0.709595 430.997 -0.827515 430.911 -0.939453H1127.98V1080.94H301.988C302.255 931.517 366.068 826.425 430.03 721.117L430.068 721.054C494.139 615.568 558.347 509.855 558.347 359.374Z" fill="#93C5FD" stroke="black" stroke-width="1.88153"/>
<path d="M581.705 -0.585571C581.61 -0.709595 581.52 -0.827515 581.434 -0.939453H1921.06V1080.94H452.512C452.779 931.517 516.591 826.425 580.554 721.117L580.592 721.054C644.662 615.568 708.87 509.855 708.87 359.374C708.87 259.422 676.706 168.962 644.566 103.514C628.494 70.7852 612.421 44.2985 600.365 25.9915C594.337 16.8376 589.312 9.72791 585.792 4.90466C584.033 2.49292 582.649 0.65271 581.705 -0.585571Z" fill="#60A5FA" stroke="black" stroke-width="1.88153"/>
</g>
<defs>
<clipPath id="clip0_2075_29057">
<rect width="1920" height="1080" fill="white"/>
</clipPath>
</defs>
</svg>
