<svg viewBox="0 0 425.88 513.39" xmlns="http://www.w3.org/2000/svg"><path d="m327.19 414h-55.19v-3h55.22a11.93 11.93 0 0 0 11.89-12v-8.76h3v8.76a14.93 14.93 0 0 1 -14.92 15z" fill="#cb2028"/><path d="m333.32 391.24h14.58l-7.29-7.28z" fill="#cb2028"/><path d="m186.74 156.6h-3v-16.81a11.93 11.93 0 0 0 -11.92-11.92h-71.94v-3h71.94a14.94 14.94 0 0 1 14.92 14.92z" fill="#376db4"/><path d="m223.55 454.79h-130.55v-3h130.55a11.94 11.94 0 0 0 11.92-11.92v-8.76h3v8.76a14.94 14.94 0 0 1 -14.92 14.92z" fill="#7e4298"/><path d="m229.68 432.08h14.58l-7.29-7.28z" fill="#7e4298"/><path d="m120 127.8h-27.76v-3h27.76a11.94 11.94 0 0 0 11.92-11.92v-8.76h3v8.76a14.94 14.94 0 0 1 -14.92 14.92z" fill="#3babc8"/><path d="m126.12 105.09h14.58l-7.29-7.28z" fill="#3babc8"/><path d="m223.55 168.68h-27.75v-3h27.75a11.94 11.94 0 0 0 11.92-11.92v-8.76h3v8.76a14.94 14.94 0 0 1 -14.92 14.92z" fill="#376db4"/><path d="m223.55 86.73h-78.89v-3h78.89a11.94 11.94 0 0 0 11.92-11.92v-8.76h3v8.76a14.94 14.94 0 0 1 -14.92 14.92z" fill="#376db4"/><path d="m198.61 251.09h27.74v-3h-27.74a11.93 11.93 0 0 1 -11.93-11.92v-9.41h-3v9.41a14.94 14.94 0 0 0 14.93 14.92z" fill="#376db4"/><path d="m192.47 227.74h-14.57l7.28-7.29z" fill="#376db4"/><path d="m81.66 443.8a9.47 9.47 0 1 1 -9.47 9.47 9.48 9.48 0 0 1 9.47-9.47m0-3a12.47 12.47 0 1 0 12.47 12.47 12.48 12.48 0 0 0 -12.47-12.47z" fill="#48bc96"/><path d="m237 402.92a9.47 9.47 0 1 1 -9.47 9.47 9.48 9.48 0 0 1 9.47-9.47m0-3a12.47 12.47 0 1 0 12.47 12.47 12.47 12.47 0 0 0 -12.47-12.47z" fill="#7e4298"/><path d="m288.74 362a9.47 9.47 0 1 1 -9.47 9.47 9.48 9.48 0 0 1 9.47-9.47m0-3a12.47 12.47 0 1 0 12.47 12.47 12.47 12.47 0 0 0 -12.47-12.47z" fill="#ae3d95"/><path d="m340.51 362a9.47 9.47 0 1 1 -9.47 9.47 9.47 9.47 0 0 1 9.47-9.47m0-3a12.47 12.47 0 1 0 12.49 12.51 12.47 12.47 0 0 0 -12.49-12.51z" fill="#cb2028"/><path d="m288.74 321.16a9.47 9.47 0 1 1 -9.47 9.47 9.48 9.48 0 0 1 9.47-9.47m0-3a12.47 12.47 0 1 0 12.47 12.47 12.47 12.47 0 0 0 -12.47-12.47z" fill="#ae3d95"/><path d="m340.51 321.16a9.47 9.47 0 1 1 -9.47 9.47 9.47 9.47 0 0 1 9.47-9.47m0-3a12.47 12.47 0 1 0 12.49 12.47 12.47 12.47 0 0 0 -12.46-12.47z" fill="#cb2028"/><path d="m237 280.28a9.47 9.47 0 1 1 -9.47 9.47 9.48 9.48 0 0 1 9.47-9.47m0-3a12.47 12.47 0 1 0 12.47 12.47 12.47 12.47 0 0 0 -12.47-12.47z" fill="#7e4298"/><path d="m340.51 280.28a9.47 9.47 0 1 1 -9.47 9.47 9.47 9.47 0 0 1 9.47-9.47m0-3a12.47 12.47 0 1 0 12.49 12.47 12.47 12.47 0 0 0 -12.46-12.47z" fill="#cb2028"/><path d="m237 239.4a9.47 9.47 0 1 1 -9.47 9.47 9.48 9.48 0 0 1 9.47-9.47m0-3a12.47 12.47 0 1 0 12.47 12.47 12.47 12.47 0 0 0 -12.47-12.47z" fill="#7e4298"/><path d="m185.2 198.52a9.47 9.47 0 1 1 -9.47 9.46 9.47 9.47 0 0 1 9.47-9.46m0-3a12.47 12.47 0 1 0 12.47 12.48 12.46 12.46 0 0 0 -12.47-12.46z" fill="#376db4"/><path d="m185.2 157.63a9.47 9.47 0 1 1 -9.47 9.47 9.48 9.48 0 0 1 9.47-9.47m0-3a12.47 12.47 0 1 0 12.47 12.47 12.47 12.47 0 0 0 -12.47-12.47z" fill="#376db4"/><path d="m81.66 116.75a9.47 9.47 0 1 1 -9.47 9.47 9.48 9.48 0 0 1 9.47-9.47m0-3a12.47 12.47 0 1 0 12.47 12.47 12.47 12.47 0 0 0 -12.47-12.47z" fill="#48bc96"/><path d="m237 116.75a9.47 9.47 0 1 1 -9.47 9.47 9.48 9.48 0 0 1 9.47-9.47m0-3a12.47 12.47 0 1 0 12.47 12.47 12.47 12.47 0 0 0 -12.47-12.47z" fill="#7e4298"/><path d="m133.43 75.87a9.47 9.47 0 1 1 -9.43 9.47 9.48 9.48 0 0 1 9.47-9.47m0-3a12.47 12.47 0 1 0 12.43 12.47 12.47 12.47 0 0 0 -12.47-12.47z" fill="#3babc8"/><path d="m81.66 35a9.47 9.47 0 1 1 -9.47 9.47 9.48 9.48 0 0 1 9.47-9.47m0-3a12.47 12.47 0 1 0 12.47 12.46 12.47 12.47 0 0 0 -12.47-12.46z" fill="#48bc96"/><path d="m237 35a9.47 9.47 0 1 1 -9.47 9.47 9.48 9.48 0 0 1 9.47-9.47m0-3a12.47 12.47 0 1 0 12.47 12.47 12.47 12.47 0 0 0 -12.47-12.47z" fill="#7e4298"/><path d="m80.16 472.05h3v16.17h-3z" fill="#48bc96"/><path d="m88.95 473.03h-14.58l7.29-7.29z" fill="#48bc96"/><path d="m235.47 440.67h3v47.55h-3z" fill="#7e4298"/><path d="m235.47 267.64h3v11.65h-3z" fill="#7e4298"/><path d="m244.26 268.62h-14.58l7.29-7.29z" fill="#7e4298"/><path d="m287.24 349.41h3v11.65h-3z" fill="#ae3d95"/><path d="m296.03 350.38h-14.58l7.29-7.28z" fill="#ae3d95"/><path d="m339.01 349.41h3v11.65h-3z" fill="#cb2028"/><path d="m347.8 350.38h-14.58l7.29-7.28z" fill="#cb2028"/><path d="m339.01 308.55h3v11.65h-3z" fill="#cb2028"/><path d="m347.8 309.53h-14.58l7.29-7.29z" fill="#cb2028"/><path d="m183.74 185.85h3v11.65h-3z" fill="#376db4"/><path d="m192.53 186.83h-14.57l7.28-7.29z" fill="#376db4"/><path d="m235.47 145h3v92.76h-3z" fill="#7e4298"/><path d="m244.26 145.98h-14.58l7.29-7.29z" fill="#7e4298"/><path d="m235.47 63.24h3v52.69h-3z" fill="#7e4298"/><path d="m244.26 64.21h-14.58l7.29-7.28z" fill="#7e4298"/><path d="m80.16 63.24h3v52.1h-3z" fill="#48bc96"/><path d="m88.95 64.21h-14.58l7.29-7.28z" fill="#48bc96"/><path d="m235.47 6.31h3v27.62h-3z" fill="#7e4298"/><path d="m244.26 7.29h-14.58l7.29-7.29z" fill="#7e4298"/><path d="m80.16 6.31h3v27.03h-3z" fill="#48bc96"/><path d="m88.95 7.29h-14.58l7.29-7.29z" fill="#48bc96"/><path d="m80.16 145h3v297.86h-3z" fill="#48bc96"/><path d="m88.95 145.98h-14.58l7.29-7.29z" fill="#48bc96"/><path d="m235.47 308.53h3v93.16h-3z" fill="#7e4298"/><path d="m244.26 309.5h-14.58l7.29-7.29z" fill="#7e4298"/><g fill="#b9c0c3"><path d="m66.14 509.07-3.14-10.07c.11 2.05.17 3.42.17 4.1v6h-2.47v-12.88h3.7l3 9.83 3.22-9.83h3.71v12.85h-2.44v-6.07c0-.29 0-.62 0-1s0-1.38.11-3l-3.32 10.06z"/><path d="m83.7 509.07-.52-1.34h-.07a4 4 0 0 1 -1.4 1.19 4.46 4.46 0 0 1 -1.86.33 3 3 0 0 1 -2.23-.81 3.12 3.12 0 0 1 -.81-2.3 2.58 2.58 0 0 1 1.09-2.31 6.27 6.27 0 0 1 3.3-.82l1.71-.06v-.43a1.34 1.34 0 0 0 -1.53-1.52 7 7 0 0 0 -2.77.71l-.89-1.81a8 8 0 0 1 3.76-.89 4.69 4.69 0 0 1 3 .86 3.18 3.18 0 0 1 1.06 2.62v6.55zm-.79-4.55h-1a3.35 3.35 0 0 0 -1.74.43 1.31 1.31 0 0 0 -.57 1.17c0 .76.43 1.14 1.3 1.14a2.07 2.07 0 0 0 1.49-.54 1.89 1.89 0 0 0 .56-1.42z"/><path d="m88.21 496.7c0-.87.49-1.31 1.46-1.31s1.46.44 1.46 1.31a1.31 1.31 0 0 1 -.36 1 1.56 1.56 0 0 1 -1.1.34c-.97-.04-1.46-.46-1.46-1.34zm2.79 12.37h-2.67v-9.83h2.67z"/><path d="m102.89 509.07h-2.68v-5.74a2.67 2.67 0 0 0 -.38-1.59 1.36 1.36 0 0 0 -1.2-.54 1.83 1.83 0 0 0 -1.63.8 4.69 4.69 0 0 0 -.5 2.49v4.62h-2.68v-9.83h2.05l.36 1.26h.15a2.93 2.93 0 0 1 1.23-1.08 4.27 4.27 0 0 1 1.79-.36 3.41 3.41 0 0 1 2.6.93 3.68 3.68 0 0 1 .89 2.67z"/><path d="m212.82 502.52a6.33 6.33 0 0 1 -1.81 4.86 7.34 7.34 0 0 1 -5.22 1.69h-3.64v-12.85h4a6.79 6.79 0 0 1 4.89 1.66 6.12 6.12 0 0 1 1.78 4.64zm-2.83.07q0-4.14-3.66-4.14h-1.45v8.37h1.17c2.62 0 3.95-1.41 3.95-4.23z"/><path d="m219.72 509.25a5.07 5.07 0 0 1 -3.71-1.31 5 5 0 0 1 -1.34-3.71 5.47 5.47 0 0 1 1.23-3.82 4.42 4.42 0 0 1 3.42-1.35 4.32 4.32 0 0 1 3.24 1.19 4.45 4.45 0 0 1 1.16 3.27v1.31h-6.33a2.59 2.59 0 0 0 .67 1.78 2.38 2.38 0 0 0 1.78.64 7.59 7.59 0 0 0 1.68-.18 8.91 8.91 0 0 0 1.65-.59v2.07a5.92 5.92 0 0 1 -1.5.52 9.12 9.12 0 0 1 -1.95.18zm-.38-8.28a1.7 1.7 0 0 0 -1.34.54 2.47 2.47 0 0 0 -.55 1.53h3.76a2.19 2.19 0 0 0 -.52-1.53 1.74 1.74 0 0 0 -1.35-.51z"/><path d="m228.24 509.07-3.74-9.83h2.8l1.9 5.6a9.82 9.82 0 0 1 .39 2h.06a9 9 0 0 1 .39-2l1.89-5.6h2.81l-3.74 9.83z"/><path d="m240.59 509.25a5.09 5.09 0 0 1 -3.71-1.31 5 5 0 0 1 -1.34-3.71 5.47 5.47 0 0 1 1.24-3.82 5 5 0 0 1 6.66-.16 4.49 4.49 0 0 1 1.16 3.27v1.31h-6.34a2.59 2.59 0 0 0 .68 1.78 2.36 2.36 0 0 0 1.77.64 7.59 7.59 0 0 0 1.68-.18 8.66 8.66 0 0 0 1.65-.59v2.07a5.92 5.92 0 0 1 -1.5.52 9 9 0 0 1 -1.95.18zm-.38-8.28a1.68 1.68 0 0 0 -1.33.54 2.47 2.47 0 0 0 -.56 1.53h3.76a2.24 2.24 0 0 0 -.51-1.53 1.78 1.78 0 0 0 -1.36-.51z"/><path d="m249.46 509.07h-2.68v-13.68h2.68z"/><path d="m261.2 504.14a5.24 5.24 0 0 1 -1.27 3.75 4.54 4.54 0 0 1 -3.52 1.36 5 5 0 0 1 -2.5-.62 4.2 4.2 0 0 1 -1.66-1.78 6.11 6.11 0 0 1 -.58-2.71 5.22 5.22 0 0 1 1.26-3.74 4.61 4.61 0 0 1 3.53-1.34 5 5 0 0 1 2.5.62 4.1 4.1 0 0 1 1.66 1.76 5.9 5.9 0 0 1 .58 2.7zm-6.79 0a4.14 4.14 0 0 0 .48 2.21 2 2 0 0 0 3.1 0 4.2 4.2 0 0 0 .47-2.21 4 4 0 0 0 -.46-2.14 2 2 0 0 0 -3.1 0 4 4 0 0 0 -.49 2.14z"/><path d="m268.81 509.25a3.24 3.24 0 0 1 -2.71-1.25h-.1c.1.82.15 1.29.15 1.42v4h-2.69v-14.18h2.18l.38 1.28h.13a3.09 3.09 0 0 1 2.78-1.46 3.22 3.22 0 0 1 2.73 1.34 6.29 6.29 0 0 1 1 3.74 7.29 7.29 0 0 1 -.46 2.73 3.85 3.85 0 0 1 -1.31 1.77 3.42 3.42 0 0 1 -2.08.61zm-.81-8.05a1.71 1.71 0 0 0 -1.45.61 3.55 3.55 0 0 0 -.47 2v.29a4.09 4.09 0 0 0 .47 2.27 1.67 1.67 0 0 0 1.49.69c1.2 0 1.8-1 1.8-3a4.18 4.18 0 0 0 -.45-2.17 1.52 1.52 0 0 0 -1.39-.69z"/><path d="m260.61 432.5h-2.09v-10h5.73v1.73h-3.64v2.58h3.39v1.73h-3.39z"/><path d="m269.5 432.64a3.93 3.93 0 0 1 -2.88-1 3.83 3.83 0 0 1 -1-2.89 4.24 4.24 0 0 1 1-3 3.89 3.89 0 0 1 5.18-.12 3.48 3.48 0 0 1 .9 2.55v1h-4.93a2 2 0 0 0 .53 1.39 1.83 1.83 0 0 0 1.38.49 5.46 5.46 0 0 0 1.3-.14 6.29 6.29 0 0 0 1.29-.46v1.62a5.21 5.21 0 0 1 -1.17.4 7.29 7.29 0 0 1 -1.6.16zm-.29-6.44a1.31 1.31 0 0 0 -1 .42 1.91 1.91 0 0 0 -.43 1.19h2.92a1.74 1.74 0 0 0 -.4-1.19 1.36 1.36 0 0 0 -1.09-.42z"/><path d="m279.17 432.5-.41-1h-.05a3.09 3.09 0 0 1 -1.08.92 3.57 3.57 0 0 1 -1.46.26 2.34 2.34 0 0 1 -1.73-.63 2.43 2.43 0 0 1 -.63-1.79 2 2 0 0 1 .85-1.8 5 5 0 0 1 2.57-.64h1.32v-.33a1 1 0 0 0 -1.19-1.17 5.4 5.4 0 0 0 -2.15.56l-.69-1.41a6.2 6.2 0 0 1 2.92-.69 3.61 3.61 0 0 1 2.36.67 2.48 2.48 0 0 1 .82 2v5.09zm-.62-3.54h-.8a2.54 2.54 0 0 0 -1.36.32 1 1 0 0 0 -.44.92c0 .59.33.88 1 .88a1.6 1.6 0 0 0 1.16-.42 1.43 1.43 0 0 0 .43-1.1z"/><path d="m286 431a4.88 4.88 0 0 0 1.31-.24v1.55a4.72 4.72 0 0 1 -1.91.35 2.3 2.3 0 0 1 -1.82-.64 2.74 2.74 0 0 1 -.57-1.89v-3.69h-1v-.88l1.15-.7.6-1.61h1.33v1.63h2.14v1.56h-2.14v3.69a.8.8 0 0 0 .25.65 1 1 0 0 0 .66.22z"/><path d="m294.26 432.5-.28-1h-.11a2.21 2.21 0 0 1 -.95.83 3.3 3.3 0 0 1 -1.4.29 2.67 2.67 0 0 1 -2-.72 2.91 2.91 0 0 1 -.68-2.08v-5h2.08v4.46a2.18 2.18 0 0 0 .29 1.24 1.07 1.07 0 0 0 .94.42 1.42 1.42 0 0 0 1.27-.59 3.64 3.64 0 0 0 .39-1.94v-3.59h2.08v7.64z"/><path d="m302.31 424.71a3.48 3.48 0 0 1 .71.06l-.16 2a2.18 2.18 0 0 0 -.61-.07 2.22 2.22 0 0 0 -1.56.51 1.88 1.88 0 0 0 -.56 1.44v3.89h-2.08v-7.64h1.58l.3 1.28h.07a2.72 2.72 0 0 1 1-1 2.3 2.3 0 0 1 1.31-.47z"/><path d="m307.86 432.64a3.93 3.93 0 0 1 -2.88-1 3.87 3.87 0 0 1 -1-2.89 4.24 4.24 0 0 1 1-3 3.43 3.43 0 0 1 2.66-1.05 3.34 3.34 0 0 1 2.52.93 3.48 3.48 0 0 1 .9 2.55v1h-4.93a2.06 2.06 0 0 0 .53 1.39 1.86 1.86 0 0 0 1.38.49 5.54 5.54 0 0 0 1.31-.14 6.21 6.21 0 0 0 1.28-.46v1.62a4.89 4.89 0 0 1 -1.17.4 7.22 7.22 0 0 1 -1.6.16zm-.29-6.44a1.33 1.33 0 0 0 -1 .42 2 2 0 0 0 -.43 1.19h2.86a1.74 1.74 0 0 0 -.41-1.19 1.36 1.36 0 0 0 -1.02-.42z"/><path d="m321 432.5h-2.11v-5.78-1-1c-.36.35-.6.58-.74.69l-1.14.92-1-1.27 3.22-2.56h1.77z"/><path d="m120.36 261.9v3.83h-2.12v-10h2.91a5 5 0 0 1 3 .74 3 3 0 0 1 .5 3.82 3.22 3.22 0 0 1 -1.38 1.08q2.27 3.38 2.94 4.35h-2.35l-2.39-3.83zm0-1.72h.64a2.55 2.55 0 0 0 1.48-.34 1.18 1.18 0 0 0 .48-1 1.09 1.09 0 0 0 -.49-1 3 3 0 0 0 -1.51-.3h-.64z"/><path d="m130.78 265.87a3.93 3.93 0 0 1 -2.89-1 3.86 3.86 0 0 1 -1-2.88 4.24 4.24 0 0 1 1-3 3.43 3.43 0 0 1 2.66-1.05 3.38 3.38 0 0 1 2.52.92 3.51 3.51 0 0 1 .9 2.55v1h-4.97a2 2 0 0 0 .53 1.39 1.87 1.87 0 0 0 1.38.5 6.12 6.12 0 0 0 1.31-.14 6.61 6.61 0 0 0 1.28-.46v1.61a4.91 4.91 0 0 1 -1.17.41 7.25 7.25 0 0 1 -1.55.15zm-.3-6.44a1.33 1.33 0 0 0 -1 .42 2 2 0 0 0 -.43 1.2h2.93a1.75 1.75 0 0 0 -.41-1.2 1.36 1.36 0 0 0 -1.09-.42z"/><path d="m137.67 265.73h-2.08v-10.63h2.08z"/><path d="m143.32 265.87a4 4 0 0 1 -2.89-1 3.86 3.86 0 0 1 -1-2.88 4.24 4.24 0 0 1 1-3 3.89 3.89 0 0 1 5.17-.13 3.48 3.48 0 0 1 .91 2.55v1h-4.93a2 2 0 0 0 .52 1.39 1.87 1.87 0 0 0 1.38.5 6.12 6.12 0 0 0 1.31-.14 6.94 6.94 0 0 0 1.29-.46v1.61a5.24 5.24 0 0 1 -1.17.41 7.35 7.35 0 0 1 -1.59.15zm-.29-6.44a1.31 1.31 0 0 0 -1 .42 1.86 1.86 0 0 0 -.43 1.2h2.92a1.75 1.75 0 0 0 -.4-1.2 1.36 1.36 0 0 0 -1.12-.42z"/><path d="m153 265.73-.4-1h-.05a3.13 3.13 0 0 1 -1.09.92 3.5 3.5 0 0 1 -1.45.25 2.34 2.34 0 0 1 -1.73-.63 2.41 2.41 0 0 1 -.63-1.79 2 2 0 0 1 .85-1.79 4.84 4.84 0 0 1 2.5-.69h1.33v-.34a1 1 0 0 0 -1.19-1.16 5.36 5.36 0 0 0 -2.14.5l-.69-1.4a6.2 6.2 0 0 1 2.92-.69 3.69 3.69 0 0 1 2.36.66 2.48 2.48 0 0 1 .82 2v5.09zm-.61-3.54h-.81a2.62 2.62 0 0 0 -1.35.33 1 1 0 0 0 -.44.92c0 .58.33.88 1 .88a1.6 1.6 0 0 0 1.16-.42 1.47 1.47 0 0 0 .43-1.11z"/><path d="m161.92 263.47a2.1 2.1 0 0 1 -.82 1.79 4 4 0 0 1 -2.44.61 8.11 8.11 0 0 1 -1.42-.11 6.13 6.13 0 0 1 -1.1-.33v-1.73a6.39 6.39 0 0 0 1.3.46 5.09 5.09 0 0 0 1.29.19c.75 0 1.13-.22 1.13-.66a.55.55 0 0 0 -.15-.4 2.17 2.17 0 0 0 -.52-.35c-.24-.13-.57-.28-1-.45a6.44 6.44 0 0 1 -1.3-.69 2 2 0 0 1 -.6-.72 2.44 2.44 0 0 1 -.19-1 1.82 1.82 0 0 1 .79-1.57 3.81 3.81 0 0 1 2.24-.56 6.38 6.38 0 0 1 2.69.6l-.63 1.5c-.38-.16-.74-.29-1.07-.4a3.61 3.61 0 0 0 -1-.16c-.62 0-.93.17-.93.5a.59.59 0 0 0 .3.49 8.84 8.84 0 0 0 1.3.61 6.07 6.07 0 0 1 1.32.67 2 2 0 0 1 .61.73 2.25 2.25 0 0 1 .2.98z"/><path d="m167 265.87a4 4 0 0 1 -2.89-1 3.86 3.86 0 0 1 -1-2.88 4.24 4.24 0 0 1 1-3 3.43 3.43 0 0 1 2.59-.99 3.38 3.38 0 0 1 2.52.92 3.51 3.51 0 0 1 .9 2.55v1h-4.93a2 2 0 0 0 .53 1.39 1.87 1.87 0 0 0 1.38.5 6.12 6.12 0 0 0 1.31-.14 6.61 6.61 0 0 0 1.28-.46v1.61a4.91 4.91 0 0 1 -1.17.41 7.25 7.25 0 0 1 -1.52.09zm-.3-6.44a1.33 1.33 0 0 0 -1 .42 2 2 0 0 0 -.43 1.2h2.93a1.75 1.75 0 0 0 -.41-1.2 1.36 1.36 0 0 0 -1.08-.42z"/><path d="m181.91 265.73h-7v-1.46l2.51-2.54c.74-.76 1.23-1.29 1.46-1.58a3.92 3.92 0 0 0 .49-.82 2.08 2.08 0 0 0 .15-.78 1.16 1.16 0 0 0 -.33-.9 1.32 1.32 0 0 0 -.89-.29 2.54 2.54 0 0 0 -1.13.27 6.09 6.09 0 0 0 -1.14.76l-1.14-1.39a7.34 7.34 0 0 1 1.23-.89 4 4 0 0 1 1.06-.4 5.07 5.07 0 0 1 1.28-.14 3.79 3.79 0 0 1 1.66.34 2.61 2.61 0 0 1 1.11 1 2.49 2.49 0 0 1 .4 1.4 3.31 3.31 0 0 1 -.25 1.3 4.88 4.88 0 0 1 -.75 1.24 19.1 19.1 0 0 1 -1.79 1.81l-1.29 1.21v.1h4.36z"/><path d="m183.15 264.76a1.13 1.13 0 0 1 .31-.87 1.22 1.22 0 0 1 .9-.29 1.19 1.19 0 0 1 .87.3 1.12 1.12 0 0 1 .31.86 1.14 1.14 0 0 1 -.31.85 1.17 1.17 0 0 1 -.87.31 1.23 1.23 0 0 1 -.89-.3 1.15 1.15 0 0 1 -.32-.86z"/><path d="m193.84 260.74a7 7 0 0 1 -.86 3.87 3 3 0 0 1 -2.64 1.26 2.92 2.92 0 0 1 -2.61-1.3 6.8 6.8 0 0 1 -.88-3.83 7.09 7.09 0 0 1 .85-3.9 3.32 3.32 0 0 1 5.25.06 6.85 6.85 0 0 1 .89 3.84zm-4.89 0a7.8 7.8 0 0 0 .32 2.63 1.11 1.11 0 0 0 2.13 0 10.65 10.65 0 0 0 0-5.26 1.12 1.12 0 0 0 -1.06-.81 1.1 1.1 0 0 0 -1.07.81 7.83 7.83 0 0 0 -.27 2.63z"/><path d="m130 37.64h-2.11v-4.32h-4v4.32h-2.12v-10h2.23v3.92h4v-3.92h2z"/><path d="m139.33 33.8a4.12 4.12 0 0 1 -1 2.92 3.58 3.58 0 0 1 -2.74 1.05 3.82 3.82 0 0 1 -1.94-.48 3.21 3.21 0 0 1 -1.3-1.38 4.68 4.68 0 0 1 -.45-2.11 4.08 4.08 0 0 1 1-2.91 3.6 3.6 0 0 1 2.75-1 3.85 3.85 0 0 1 1.94.48 3.22 3.22 0 0 1 1.29 1.37 4.64 4.64 0 0 1 .45 2.06zm-5.28 0a3.21 3.21 0 0 0 .37 1.72 1.32 1.32 0 0 0 1.21.58 1.29 1.29 0 0 0 1.2-.58 3.19 3.19 0 0 0 .37-1.72 3.11 3.11 0 0 0 -.37-1.7 1.34 1.34 0 0 0 -1.21-.57 1.32 1.32 0 0 0 -1.2.57 3.09 3.09 0 0 0 -.37 1.7z"/><path d="m144.28 36.11a4.52 4.52 0 0 0 1.31-.24v1.55a4.58 4.58 0 0 1 -1.92.35 2.35 2.35 0 0 1 -1.82-.63 2.75 2.75 0 0 1 -.57-1.9v-3.68h-1v-.88l1.15-.7.6-1.61h1.34v1.63h2.14v1.57h-2.14v3.68a.8.8 0 0 0 .25.66 1 1 0 0 0 .66.2z"/><path d="m151.36 31.56h-1.81v6.08h-2.08v-6.08h-1.15v-1l1.15-.56v-.56a2.48 2.48 0 0 1 .64-1.9 2.9 2.9 0 0 1 2.06-.61 5.22 5.22 0 0 1 1.92.33l-.53 1.53a4 4 0 0 0 -1.17-.2.77.77 0 0 0 -.64.26 1.12 1.12 0 0 0 -.2.68v.47h1.81zm1.1-3.54q0-1 1.14-1c.76 0 1.13.34 1.13 1a1 1 0 0 1 -.28.75 1.19 1.19 0 0 1 -.85.27q-1.14-.04-1.14-1.04zm2.18 9.62h-2.09v-7.64h2.09z"/><path d="m158.38 33.73-2.46-3.73h2.37l1.48 2.44 1.5-2.44h2.36l-2.48 3.74 2.6 3.91h-2.37l-1.61-2.65-1.61 2.62h-2.37z"/><path d="m172.77 31.56h-1.77v6.08h-2.09v-6.08h-1.14v-1l1.14-.56v-.56a2.48 2.48 0 0 1 .65-1.9 2.89 2.89 0 0 1 2.05-.61 5.31 5.31 0 0 1 1.93.33l-.54 1.52a3.93 3.93 0 0 0 -1.16-.2.75.75 0 0 0 -.64.26 1.12 1.12 0 0 0 -.2.68v.48h1.8z"/><path d="m180.92 33.8a4.08 4.08 0 0 1 -1 2.92 3.56 3.56 0 0 1 -2.74 1.05 3.85 3.85 0 0 1 -1.94-.48 3.19 3.19 0 0 1 -1.24-1.38 4.68 4.68 0 0 1 -.45-2.11 4.08 4.08 0 0 1 1-2.91 3.6 3.6 0 0 1 2.75-1 3.85 3.85 0 0 1 1.94.48 3.22 3.22 0 0 1 1.29 1.37 4.51 4.51 0 0 1 .39 2.06zm-5.29 0a3.3 3.3 0 0 0 .37 1.72 1.34 1.34 0 0 0 1.22.58 1.32 1.32 0 0 0 1.2-.58 3.29 3.29 0 0 0 .36-1.72 3.11 3.11 0 0 0 -.37-1.7 1.56 1.56 0 0 0 -2.41 0 3.09 3.09 0 0 0 -.37 1.7z"/><path d="m186.9 29.85a3.48 3.48 0 0 1 .71.06l-.16 2a2.18 2.18 0 0 0 -.61-.07 2.22 2.22 0 0 0 -1.56.51 1.86 1.86 0 0 0 -.56 1.44v3.89h-2.08v-7.68h1.58l.31 1.29h.1a2.9 2.9 0 0 1 1-1 2.36 2.36 0 0 1 1.27-.44z"/><path d="m151.8 54.44h-7v-1.44l2.5-2.54c.75-.76 1.23-1.29 1.46-1.58a3.53 3.53 0 0 0 .49-.82 2.08 2.08 0 0 0 .15-.78 1.12 1.12 0 0 0 -.33-.89 1.27 1.27 0 0 0 -.88-.3 2.51 2.51 0 0 0 -1.13.27 5.51 5.51 0 0 0 -1.14.76l-1.15-1.36a7.34 7.34 0 0 1 1.22-.89 4.47 4.47 0 0 1 1.06-.4 5.6 5.6 0 0 1 1.29-.14 3.77 3.77 0 0 1 1.65.34 2.61 2.61 0 0 1 1.11 1 2.5 2.5 0 0 1 .4 1.41 3.44 3.44 0 0 1 -.24 1.29 4.88 4.88 0 0 1 -.75 1.24 17.26 17.26 0 0 1 -1.8 1.81l-1.28 1.21v.1h4.35z"/><path d="m153.05 53.46a1.18 1.18 0 0 1 .3-.87 1.25 1.25 0 0 1 .9-.29 1.22 1.22 0 0 1 .88.3 1.32 1.32 0 0 1 0 1.71 1.17 1.17 0 0 1 -.87.31 1.24 1.24 0 0 1 -.89-.3 1.15 1.15 0 0 1 -.32-.86z"/><path d="m163.73 49.44a7 7 0 0 1 -.86 3.88 3 3 0 0 1 -2.64 1.25 3 3 0 0 1 -2.61-1.3 6.88 6.88 0 0 1 -.88-3.83 7 7 0 0 1 .86-3.9 3.33 3.33 0 0 1 5.25.06 6.86 6.86 0 0 1 .88 3.84zm-4.89 0a7.91 7.91 0 0 0 .32 2.64 1.1 1.1 0 0 0 1.07.79 1.12 1.12 0 0 0 1.07-.81 7.52 7.52 0 0 0 .32-2.62 7.52 7.52 0 0 0 -.33-2.64 1.11 1.11 0 0 0 -2.13 0 7.83 7.83 0 0 0 -.32 2.64z"/><path d="m363.73 387.29h-2.09v-10h5.73v1.71h-3.64v2.57h3.39v1.73h-3.39z"/><path d="m372.62 387.43a4 4 0 0 1 -2.89-1 3.86 3.86 0 0 1 -1-2.88 4.25 4.25 0 0 1 1-3 3.89 3.89 0 0 1 5.17-.13 3.48 3.48 0 0 1 .91 2.55v1h-4.93a2 2 0 0 0 .52 1.39 1.87 1.87 0 0 0 1.38.5 6.12 6.12 0 0 0 1.31-.14 6.94 6.94 0 0 0 1.29-.46v1.61a5.24 5.24 0 0 1 -1.17.41 7.35 7.35 0 0 1 -1.59.15zm-.3-6.44a1.31 1.31 0 0 0 -1 .42 1.86 1.86 0 0 0 -.43 1.19h2.92a1.74 1.74 0 0 0 -.4-1.19 1.37 1.37 0 0 0 -1.09-.41z"/><path d="m382.28 387.29-.4-1h-.05a3.22 3.22 0 0 1 -1.09.92 3.5 3.5 0 0 1 -1.45.25 2.34 2.34 0 0 1 -1.73-.63 2.41 2.41 0 0 1 -.63-1.79 2 2 0 0 1 .85-1.79 4.84 4.84 0 0 1 2.56-.64h1.33v-.34a1 1 0 0 0 -1.19-1.16 5.36 5.36 0 0 0 -2.15.55l-.69-1.4a6.2 6.2 0 0 1 2.92-.7 3.69 3.69 0 0 1 2.36.67 2.48 2.48 0 0 1 .82 2v5.09zm-.61-3.54h-.81a2.62 2.62 0 0 0 -1.35.33 1 1 0 0 0 -.44.91c0 .59.33.89 1 .89a1.6 1.6 0 0 0 1.16-.42 1.47 1.47 0 0 0 .43-1.11z"/><path d="m389.11 385.77a4.52 4.52 0 0 0 1.31-.24v1.55a4.72 4.72 0 0 1 -1.91.35 2.36 2.36 0 0 1 -1.83-.63 2.77 2.77 0 0 1 -.57-1.9v-3.68h-1v-.88l1.15-.7.6-1.62h1.34v1.63h2.14v1.57h-2.14v3.68a.8.8 0 0 0 .25.66 1 1 0 0 0 .66.21z"/><path d="m397.38 387.29-.28-1h-.1a2.19 2.19 0 0 1 -.95.82 3.3 3.3 0 0 1 -1.4.29 2.66 2.66 0 0 1 -2-.72 2.88 2.88 0 0 1 -.69-2.07v-5h2.04v4.47a2.2 2.2 0 0 0 .29 1.24 1.09 1.09 0 0 0 .94.41 1.4 1.4 0 0 0 1.26-.58 3.64 3.64 0 0 0 .39-1.94v-3.6h2.12v7.64z"/><path d="m405.43 379.51a3.55 3.55 0 0 1 .71.06l-.16 1.95a2.77 2.77 0 0 0 -.62-.06 2.21 2.21 0 0 0 -1.55.51 1.85 1.85 0 0 0 -.56 1.43v3.89h-2.08v-7.64h1.57l.31 1.29h.1a2.91 2.91 0 0 1 1-1 2.42 2.42 0 0 1 1.28-.43z"/><path d="m411 387.43a3.93 3.93 0 0 1 -2.88-1 3.83 3.83 0 0 1 -1-2.88 4.24 4.24 0 0 1 1-3 3.9 3.9 0 0 1 5.18-.13 3.51 3.51 0 0 1 .9 2.55v1h-4.93a2 2 0 0 0 .53 1.39 1.85 1.85 0 0 0 1.38.5 6 6 0 0 0 1.3-.14 6.94 6.94 0 0 0 1.29-.46v1.61a5.24 5.24 0 0 1 -1.17.41 7.35 7.35 0 0 1 -1.6.15zm-.29-6.44a1.33 1.33 0 0 0 -1 .42 1.91 1.91 0 0 0 -.43 1.19h2.92a1.69 1.69 0 0 0 -.4-1.19 1.36 1.36 0 0 0 -1.11-.41z"/><path d="m425.88 387.29h-7v-1.47l2.51-2.53c.74-.76 1.23-1.29 1.45-1.58a4 4 0 0 0 .5-.82 2.08 2.08 0 0 0 .15-.78 1.13 1.13 0 0 0 -.34-.9 1.3 1.3 0 0 0 -.88-.29 2.54 2.54 0 0 0 -1.13.27 5.64 5.64 0 0 0 -1.14.81l-1.15-1.36a7.34 7.34 0 0 1 1.22-.89 4.22 4.22 0 0 1 1.06-.4 5.21 5.21 0 0 1 1.29-.14 3.77 3.77 0 0 1 1.65.34 2.7 2.7 0 0 1 1.12 1 2.57 2.57 0 0 1 .39 1.4 3.49 3.49 0 0 1 -.24 1.3 4.88 4.88 0 0 1 -.75 1.24 19.1 19.1 0 0 1 -1.79 1.81l-1.29 1.21v.1h4.35z"/></g><path d="m134.83 74.67h-3v-16.81a11.93 11.93 0 0 0 -11.92-11.92h-20v-3h20a14.93 14.93 0 0 1 14.92 14.92z" fill="#3babc8"/><path d="m101.42 37.15v14.58l-7.29-7.29z" fill="#3babc8"/><path d="m275.32 414h-27.75v-3h27.75a11.94 11.94 0 0 0 11.92-12v-8.76h3v8.76a14.94 14.94 0 0 1 -14.92 15z" fill="#ae3d95"/><path d="m281.45 391.24h14.58l-7.29-7.28z" fill="#ae3d95"/><path d="m290.16 320h-3v-16.8a11.93 11.93 0 0 0 -11.92-11.93h-20v-3h20a14.94 14.94 0 0 1 14.92 14.93z" fill="#ae3d95"/><path d="m256.75 282.45v14.58l-7.29-7.29z" fill="#ae3d95"/><path d="m342 279.87h-3v-16.8a11.94 11.94 0 0 0 -11.92-11.93h-71.87v-3h71.88a15 15 0 0 1 14.91 14.93z" fill="#cb2028"/><path d="m256.75 242.35v14.58l-7.29-7.29z" fill="#cb2028"/><path d="m44.97 452.73h25.43v1.08h-25.43z" fill="#48bc96"/><rect fill="#48bc96" height="18.94" rx="3.3" width="46.3" y="443.81"/><path d="m12.09 457.7-2.91-7.64h2.18l1.48 4.35a8.7 8.7 0 0 1 .31 1.57 6.77 6.77 0 0 1 .3-1.57l1.55-4.35h2.18l-2.91 7.64z" fill="#141421"/><path d="m22.93 457.7h-2.11v-5.78-.95-1c-.35.35-.59.58-.73.69l-1.15.92-1-1.27 3.22-2.57h1.74z" fill="#141421"/><path d="m25.94 456.72a1.18 1.18 0 0 1 .3-.87 1.3 1.3 0 0 1 .9-.29 1.22 1.22 0 0 1 .88.3 1.17 1.17 0 0 1 .31.86 1.15 1.15 0 0 1 -.32.85 1.17 1.17 0 0 1 -.87.31 1.24 1.24 0 0 1 -.89-.3 1.13 1.13 0 0 1 -.31-.86z" fill="#141421"/><path d="m36.62 452.7a7 7 0 0 1 -.86 3.88 3 3 0 0 1 -2.64 1.26 3 3 0 0 1 -2.61-1.3 6.94 6.94 0 0 1 -.88-3.84 7 7 0 0 1 .86-3.9 3 3 0 0 1 2.63-1.25 2.93 2.93 0 0 1 2.61 1.31 6.88 6.88 0 0 1 .89 3.84zm-4.89 0a7.83 7.83 0 0 0 .32 2.64 1.1 1.1 0 0 0 1.07.79 1.12 1.12 0 0 0 1.07-.8 7.88 7.88 0 0 0 .32-2.63 7.6 7.6 0 0 0 -.33-2.64 1.11 1.11 0 0 0 -2.13 0 7.91 7.91 0 0 0 -.32 2.64z" fill="#141421"/><path d="m44.97 125.68h25.43v1.08h-25.43z" fill="#48bc96"/><rect fill="#48bc96" height="18.94" rx="3.3" width="46.3" y="116.75"/><path d="m12.09 130.64-2.91-7.64h2.18l1.48 4.36a8.77 8.77 0 0 1 .31 1.56 6.6 6.6 0 0 1 .3-1.56l1.55-4.36h2.18l-2.91 7.64z" fill="#141421"/><path d="m24.69 130.64h-7v-1.47l2.51-2.53c.75-.76 1.23-1.29 1.46-1.58a3.53 3.53 0 0 0 .49-.82 2.08 2.08 0 0 0 .15-.78 1.16 1.16 0 0 0 -.33-.9 1.31 1.31 0 0 0 -.88-.29 2.51 2.51 0 0 0 -1.13.27 5.13 5.13 0 0 0 -1.14.76l-1.15-1.36a7.34 7.34 0 0 1 1.22-.89 4.08 4.08 0 0 1 1.06-.4 5.1 5.1 0 0 1 1.29-.14 3.77 3.77 0 0 1 1.65.34 2.55 2.55 0 0 1 1.11 1 2.49 2.49 0 0 1 .4 1.4 3.53 3.53 0 0 1 -.24 1.3 4.88 4.88 0 0 1 -.75 1.24 18.3 18.3 0 0 1 -1.8 1.81l-1.28 1.21v.1h4.35z" fill="#141421"/><path d="m25.94 129.67a1.15 1.15 0 0 1 .3-.87 1.25 1.25 0 0 1 .9-.3 1.18 1.18 0 0 1 .88.31 1.32 1.32 0 0 1 0 1.71 1.17 1.17 0 0 1 -.87.31 1.21 1.21 0 0 1 -.89-.31 1.11 1.11 0 0 1 -.32-.85z" fill="#141421"/><path d="m36.62 125.65a7 7 0 0 1 -.86 3.87 3 3 0 0 1 -2.64 1.26 3 3 0 0 1 -2.61-1.3 6.88 6.88 0 0 1 -.88-3.83 7 7 0 0 1 .86-3.9 3 3 0 0 1 2.63-1.26 2.94 2.94 0 0 1 2.61 1.32 6.85 6.85 0 0 1 .89 3.84zm-4.89 0a7.8 7.8 0 0 0 .32 2.63 1.11 1.11 0 0 0 1.07.8 1.12 1.12 0 0 0 1.07-.81 7.81 7.81 0 0 0 .32-2.62 7.52 7.52 0 0 0 -.33-2.64 1.11 1.11 0 0 0 -2.13 0 7.83 7.83 0 0 0 -.32 2.64z" fill="#141421"/><path d="m44.97 43.9h25.43v1.08h-25.43z" fill="#48bc96"/><rect fill="#48bc96" height="18.94" rx="3.3" width="46.3" y="34.97"/><path d="m12.09 48.86-2.91-7.64h2.18l1.48 4.36a8.77 8.77 0 0 1 .31 1.56 6.6 6.6 0 0 1 .3-1.56l1.55-4.36h2.18l-2.91 7.64z" fill="#141421"/><path d="m24.69 48.86h-7v-1.47l2.51-2.53c.75-.76 1.23-1.29 1.46-1.58a3.53 3.53 0 0 0 .49-.82 2.08 2.08 0 0 0 .15-.78 1.16 1.16 0 0 0 -.33-.9 1.31 1.31 0 0 0 -.88-.29 2.51 2.51 0 0 0 -1.13.27 5.13 5.13 0 0 0 -1.14.76l-1.15-1.37a7.79 7.79 0 0 1 1.22-.88 4.08 4.08 0 0 1 1.06-.4 5.1 5.1 0 0 1 1.29-.14 3.77 3.77 0 0 1 1.65.34 2.59 2.59 0 0 1 1.11.93 2.52 2.52 0 0 1 .4 1.41 3.53 3.53 0 0 1 -.24 1.3 4.88 4.88 0 0 1 -.74 1.29 18.3 18.3 0 0 1 -1.8 1.81l-1.28 1.19v.1h4.35z" fill="#141421"/><path d="m25.94 47.89a1.15 1.15 0 0 1 .3-.87 1.25 1.25 0 0 1 .9-.3 1.22 1.22 0 0 1 .86.28 1.2 1.2 0 0 1 .31.87 1.15 1.15 0 0 1 -.32.85 1.4 1.4 0 0 1 -1.76 0 1.11 1.11 0 0 1 -.29-.83z" fill="#141421"/><path d="m34.91 48.86h-2.11v-5.78-.95-1c-.35.35-.59.58-.73.69l-1.07.88-1-1.27 3.22-2.56h1.74z" fill="#141421"/></svg>